<?xml version="1.0" standalone="no"?>
<!DOCTYPE svg PUBLIC "-//W3C//DTD SVG 1.1//EN" "http://www.w3.org/Graphics/SVG/1.1/DTD/svg11.dtd" >
<svg xmlns="http://www.w3.org/2000/svg" xmlns:xlink="http://www.w3.org/1999/xlink" version="1.1">
<metadata></metadata>
<defs>
<font id="wigrumbold" horiz-adv-x="1189" >
<font-face units-per-em="2048" ascent="1536" descent="-512" />
<missing-glyph horiz-adv-x="509" />
<glyph unicode="&#xfb01;" horiz-adv-x="1376" d="M49 780v244h133v57q0 177 103.5 277t281.5 100q91 0 164 -22v-269q-48 23 -98 23q-62 0 -100.5 -34t-38.5 -91v-41h225v-244h-225v-780h-312v780h-133zM922 1151v301h319v-301h-319zM926 0v1024h311v-1024h-311z" />
<glyph unicode="&#xfb02;" horiz-adv-x="1378" d="M49 780v244h133v57q0 177 103.5 277t281.5 100q91 0 164 -22v-269q-48 23 -98 23q-62 0 -100.5 -34t-38.5 -91v-41h225v-244h-225v-780h-312v780h-133zM928 0v1464h311v-1464h-311z" />
<glyph unicode="&#xfb03;" horiz-adv-x="2164" d="M49 780v244h133v57q0 177 103.5 277t281.5 100q91 0 164 -22v-269q-48 23 -98 23q-62 0 -100.5 -34t-38.5 -91v-41h477v57q0 177 103.5 277t281.5 100q94 0 164 -22v-269q-48 23 -99 23q-62 0 -100.5 -34t-38.5 -91v-41h225v-244h-225v-780h-311v780h-477v-780h-312v780 h-133zM1710 1151v301h320v-301h-320zM1714 0v1024h311v-1024h-311z" />
<glyph unicode="&#xfb04;" horiz-adv-x="2166" d="M49 780v244h133v57q0 177 103.5 277t281.5 100q91 0 164 -22v-269q-48 23 -98 23q-62 0 -100.5 -34t-38.5 -91v-41h477v57q0 177 103.5 277t281.5 100q94 0 164 -22v-269q-48 23 -99 23q-62 0 -100.5 -34t-38.5 -91v-41h225v-244h-225v-780h-311v780h-477v-780h-312v780 h-133zM1716 0v1464h312v-1464h-312z" />
<glyph horiz-adv-x="0" />
<glyph horiz-adv-x="682" />
<glyph unicode=" "  horiz-adv-x="509" />
<glyph unicode="&#x09;" horiz-adv-x="509" />
<glyph unicode="&#xa0;" horiz-adv-x="509" />
<glyph unicode="!" horiz-adv-x="602" d="M141 0v285h320v-285h-320zM152 434v1000h299v-1000h-299z" />
<glyph unicode="&#x22;" horiz-adv-x="993" d="M276 891v543h441v-543h-441z" />
<glyph unicode="#" d="M8 371v256h228l36 176h-176v258h228l75 373h277l-78 -373h137l76 373h274l-75 -373h172v-258h-226l-36 -176h176v-256h-228l-75 -371h-275l76 371h-135l-76 -371h-277l78 371h-176zM510 627h135l37 176h-135z" />
<glyph unicode="$" d="M74 352l278 115q29 -94 98 -148.5t158 -54.5q77 0 124.5 39t47.5 103q0 54 -37 97.5t-125 88.5q-14 7 -100 51t-100 51q-248 131 -248 391q0 131 78.5 226.5t214.5 130.5v200h295v-202q182 -49 256 -236l-266 -137q-48 109 -140 109q-44 0 -73 -23.5t-29 -62.5 q0 -40 23.5 -70.5t82.5 -61.5q5 -3 100.5 -52.5t104.5 -55.5q153 -81 224 -185.5t71 -256.5q0 -145 -95.5 -260t-258.5 -154v-203h-295v197q-147 30 -241.5 122t-147.5 242z" />
<glyph unicode="%" horiz-adv-x="1992" d="M43 1024q0 197 93.5 310.5t262.5 113.5q167 0 261 -113.5t94 -310.5t-94 -310.5t-261 -113.5q-169 0 -262.5 113.5t-93.5 310.5zM274 1024q0 -223 125 -223q123 0 123 223t-123 223q-125 0 -125 -223zM444 18l918 1508l186 -111l-919 -1505zM1190 410q0 197 93.5 310.5 t262.5 113.5q167 0 261 -113.5t94 -310.5t-94 -310.5t-261 -113.5q-169 0 -262.5 113.5t-93.5 310.5zM1421 410q0 -224 125 -224q123 0 123 224q0 223 -123 223q-125 0 -125 -223z" />
<glyph unicode="&#x26;" horiz-adv-x="1509" d="M74 436q0 142 68 248.5t192 173.5q-55 41 -94 109.5t-39 148.5q0 141 116 241.5t289 100.5q172 0 290 -99.5t118 -236.5q0 -249 -254 -356l186 -201q7 89 -6 168h295q34 -246 -49 -426q205 -225 287 -307h-375l-94 100q-167 -125 -386 -125q-242 0 -393 129t-151 332z M387 461q0 -90 66 -148.5t165 -58.5q116 0 189 59l-315 338q-50 -32 -77.5 -82t-27.5 -108zM477 1094q0 -52 37 -88.5t92 -36.5t92 36.5t37 88.5q0 53 -37.5 90t-91.5 37q-55 0 -92 -37t-37 -90z" />
<glyph unicode="'" horiz-adv-x="567" d="M139 891v543h289v-543h-289z" />
<glyph unicode="(" horiz-adv-x="757" d="M92 594q0 267 102 540.5t293 493.5l242 -174q-164 -194 -247 -416t-83 -444q0 -218 83.5 -441t244.5 -419l-244 -174q-188 220 -289.5 493.5t-101.5 540.5z" />
<glyph unicode=")" horiz-adv-x="757" d="M31 -266q162 195 244.5 417t82.5 443q0 222 -82.5 443.5t-244.5 416.5l243 174q189 -220 290.5 -493.5t101.5 -540.5t-101.5 -540.5t-290.5 -493.5z" />
<glyph unicode="*" horiz-adv-x="929" d="M88 958l215 99l-215 98l102 180l193 -137l-23 236h209l-24 -238l194 139l103 -180l-217 -98l217 -99l-103 -178l-194 138l24 -238h-209l21 233l-191 -133z" />
<glyph unicode="+" d="M133 578v278h322v322h280v-322h322v-278h-322v-322h-280v322h-322z" />
<glyph unicode="," horiz-adv-x="569" d="M55 -266l115 557h332l-226 -557h-221z" />
<glyph unicode="-" horiz-adv-x="921" d="M135 381v278h651v-278h-651z" />
<glyph unicode="." horiz-adv-x="620" d="M154 0v285h313v-285h-313z" />
<glyph unicode="/" horiz-adv-x="1157" d="M-12 -72l856 1577h325l-858 -1577h-323z" />
<glyph unicode="0" d="M29 717q0 348 152 544.5t415 196.5t415 -196.5t152 -544.5q0 -347 -152.5 -544.5t-414.5 -197.5t-414.5 197.5t-152.5 544.5zM354 717q0 -223 63 -336t179 -113t178 112.5t62 336.5q0 222 -63.5 335t-176.5 113q-115 0 -178.5 -112.5t-63.5 -335.5z" />
<glyph unicode="1" d="M188 0v276h256v818l-245 -107v293l284 154h287v-1158h254v-276h-836z" />
<glyph unicode="2" d="M111 0v276l415 433q112 118 140 155q55 73 55 135q0 64 -44.5 109t-107.5 45q-67 0 -107.5 -49t-53.5 -121l-293 88q18 80 54 147t92.5 122t142 86.5t190.5 31.5q193 0 323 -122t130 -298q0 -133 -53.5 -234.5t-166.5 -219.5l-286 -303h530v-281h-960z" />
<glyph unicode="3" d="M72 340l297 100q16 -71 71 -119.5t131 -48.5q90 0 146.5 55t56.5 142q0 74 -53.5 132t-145.5 67l-196 20v211l256 254h-471v281h858v-260l-295 -279q163 -29 268 -144.5t105 -285.5q0 -218 -148 -354t-377 -136q-209 0 -334 99t-169 266z" />
<glyph unicode="4" d="M39 262v258l610 914h291v-897h195v-275h-195v-262h-326v262h-575zM334 537h280v415z" />
<glyph unicode="5" d="M82 336l289 94q21 -74 75.5 -116t135.5 -42q90 0 148 59t58 152t-58 152t-148 59q-63 0 -114.5 -27.5t-78.5 -82.5l-272 51l94 799h795v-293h-551l-41 -244q36 34 101.5 56t135.5 22q205 0 334 -141.5t129 -358.5q0 -215 -149 -357.5t-381 -142.5q-205 0 -334.5 98 t-167.5 263z" />
<glyph unicode="6" d="M92 467q0 163 109 340l377 627h374l-344 -496q20 4 62 4q186 0 314 -132t128 -333q0 -216 -146.5 -359t-365.5 -143q-137 0 -253 62t-185.5 175.5t-69.5 254.5zM418 473q0 -90 51.5 -151.5t130.5 -61.5q81 0 132.5 61t51.5 152q0 89 -51.5 150t-132.5 61 q-79 0 -130.5 -61t-51.5 -150z" />
<glyph unicode="7" d="M164 0l571 1153h-565v281h907v-265l-563 -1169h-350z" />
<glyph unicode="8" d="M86 442q0 116 57 213.5t142 141.5q-49 30 -87 106t-38 152q0 177 124 290t310 113q189 0 311.5 -108.5t122.5 -290.5q0 -73 -35.5 -149.5t-89.5 -112.5q89 -50 145 -143.5t56 -211.5q0 -127 -64.5 -233.5t-182 -170t-263.5 -63.5q-223 0 -365.5 132.5t-142.5 334.5z M412 446q0 -79 50 -133.5t132 -54.5q81 0 131.5 54.5t50.5 133.5q0 78 -50.5 134.5t-131.5 56.5q-82 0 -132 -55.5t-50 -135.5zM469 1051q0 -54 35.5 -91.5t89.5 -37.5t89.5 37.5t35.5 91.5q0 55 -36 93t-89 38q-55 0 -90 -38t-35 -93z" />
<glyph unicode="9" d="M86 963q0 212 149 353.5t361 141.5q137 0 253.5 -63t186.5 -177.5t70 -254.5q0 -162 -111 -340l-383 -623h-372l335 500q-18 -4 -53 -4q-186 0 -311 134t-125 333zM412 958q0 -89 52.5 -151t131.5 -62q80 0 131 61.5t51 151.5q0 91 -51 153.5t-131 62.5q-79 0 -131.5 -63 t-52.5 -153z" />
<glyph unicode=":" horiz-adv-x="620" d="M154 0v285h313v-285h-313zM154 739v285h313v-285h-313z" />
<glyph unicode=";" horiz-adv-x="618" d="M80 -266l115 557h331l-225 -557h-221zM197 739v285h313v-285h-313z" />
<glyph unicode="&#x3c;" d="M133 567v299l924 400v-305l-613 -238l613 -240v-315z" />
<glyph unicode="=" d="M133 338v276h924v-276h-924zM133 819v277h924v-277h-924z" />
<glyph unicode="&#x3e;" d="M133 168v305l612 238l-612 239v316l924 -400v-299z" />
<glyph unicode="?" horiz-adv-x="1021" d="M35 1104q41 166 167 260t296 94q210 0 344.5 -122.5t134.5 -313.5q0 -157 -86.5 -267t-239.5 -147v-174h-289v400l146 20q73 8 113.5 48.5t40.5 107.5q0 64 -47 108.5t-119 44.5q-66 0 -112.5 -39t-64.5 -106zM346 0v285h320v-285h-320z" />
<glyph unicode="@" horiz-adv-x="1873" d="M92 582q2 174 67 326.5t178 263t275.5 174t352.5 63.5q230 0 415.5 -92.5t292.5 -261t107 -381.5q0 -228 -107.5 -367t-263.5 -139q-73 0 -129.5 34.5t-89.5 96.5q-44 -59 -116 -95t-154 -36q-187 0 -309 118t-122 298q0 185 117 300t293 115q69 0 131 -29t100 -69l21 80 h201v-477q0 -51 20.5 -79t57.5 -28q49 0 86.5 76.5t37.5 202.5q0 106 -43 202t-118.5 168t-186.5 114t-239 42q-137 0 -258 -49.5t-205.5 -133.5t-134 -198t-50.5 -239q-1 -169 76 -308.5t223.5 -223t335.5 -83.5q130 0 230 31t196 90l113 -174q-120 -79 -249 -116.5 t-290 -37.5q-197 0 -360.5 62.5t-274 172.5t-170 261t-57.5 326zM748 584q0 -76 50 -130.5t124 -54.5t124 54.5t50 130.5t-50 130t-124 54t-124 -54t-50 -130z" />
<glyph unicode="A" horiz-adv-x="1390" d="M4 0l535 1434h319l528 -1434h-335l-101 283h-512l-102 -283h-332zM537 575h315l-158 463z" />
<glyph unicode="B" horiz-adv-x="1310" d="M154 0v1434h516q185 0 310.5 -104.5t125.5 -262.5q0 -87 -39 -156.5t-90 -105.5q48 -15 93.5 -45t84.5 -74.5t62.5 -109.5t23.5 -140q0 -194 -130.5 -315t-336.5 -121h-620zM469 293h260q75 0 125.5 47.5t50.5 120.5q0 72 -50.5 119t-125.5 47h-260v-334zM469 901h178 q56 0 89.5 33t33.5 86q0 55 -35 88t-94 33h-172v-240z" />
<glyph unicode="C" horiz-adv-x="1484" d="M92 717q0 212 88 380t254 264.5t383 96.5q215 0 371.5 -89.5t238.5 -256.5l-284 -162q-100 211 -336 211q-158 0 -268.5 -123t-110.5 -321q0 -104 32 -189.5t86.5 -140.5t124 -85t146.5 -30q117 0 205 54.5t135 148.5l291 -133q-81 -170 -248.5 -268.5t-404.5 -98.5 q-205 0 -366.5 97.5t-249 266t-87.5 378.5z" />
<glyph unicode="D" horiz-adv-x="1468" d="M154 0v1434h479q175 0 316.5 -54t234.5 -150t142.5 -227t49.5 -286t-51.5 -286.5t-146 -227t-235 -149.5t-310.5 -54h-479zM489 293h152q181 0 289 108.5t108 315.5t-108 315.5t-289 108.5h-152v-848z" />
<glyph unicode="E" horiz-adv-x="1232" d="M154 0v1434h962v-293h-627v-250h586v-295h-586v-303h627v-293h-962z" />
<glyph unicode="F" horiz-adv-x="1193" d="M154 0v1434h950v-293h-615v-262h574v-293h-574v-586h-335z" />
<glyph unicode="G" horiz-adv-x="1591" d="M92 719q0 160 51 296.5t144.5 234.5t230.5 153t303 55q208 0 364 -86t236 -237l-282 -164q-118 190 -328 190q-161 0 -272 -122t-111 -320q0 -105 32.5 -192t86.5 -141.5t122 -84t142 -29.5q136 0 227.5 73.5t100.5 182.5h-318v281h649v-809h-233l-53 141 q-70 -76 -178 -121t-228 -45q-200 0 -357.5 97t-243 266t-85.5 381z" />
<glyph unicode="H" horiz-adv-x="1462" d="M154 0v1434h335v-543h484v543h336v-1434h-336v596h-484v-596h-335z" />
<glyph unicode="I" horiz-adv-x="643" d="M154 0v1434h335v-1434h-335z" />
<glyph unicode="J" horiz-adv-x="1064" d="M-12 244l264 153q60 -127 174 -127q77 0 121.5 50t44.5 143v971h336v-985q0 -222 -132.5 -348t-369.5 -126q-164 0 -272 74t-166 195z" />
<glyph unicode="K" horiz-adv-x="1347" d="M154 0v1434h335v-529l420 529h408l-551 -680l582 -754h-422l-437 578v-578h-335z" />
<glyph unicode="L" horiz-adv-x="1114" d="M154 0v1434h335v-1141h592v-293h-927z" />
<glyph unicode="M" horiz-adv-x="1810" d="M154 0v1434h438l315 -992l340 992h414v-1434h-318v844l-290 -844h-291l-291 844v-844h-317z" />
<glyph unicode="N" horiz-adv-x="1503" d="M154 0v1434h366l500 -893v893h330v-1434h-365l-502 866v-866h-329z" />
<glyph unicode="O" horiz-adv-x="1660" d="M92 717q0 157 53 293.5t148 235.5t233.5 155.5t302.5 56.5t303 -56.5t234.5 -155.5t149 -235.5t53.5 -293.5q0 -155 -55 -292t-151 -236t-235 -156.5t-299 -57.5q-214 0 -383 98t-261.5 267t-92.5 377zM428 717q0 -104 33.5 -190t89.5 -142t128.5 -86.5t151.5 -30.5 q78 0 150 30.5t127.5 86.5t89 142t33.5 190q0 103 -33.5 189.5t-89.5 142t-127.5 86t-149.5 30.5t-150.5 -30.5t-129 -86t-90 -142t-33.5 -189.5z" />
<glyph unicode="P" horiz-adv-x="1226" d="M154 0v1434h516q230 0 358.5 -120t128.5 -310q0 -202 -138 -327.5t-362 -125.5h-168v-551h-335zM489 842h175q70 0 113.5 44t43.5 105q0 62 -43.5 106t-113.5 44h-175v-299z" />
<glyph unicode="Q" horiz-adv-x="1660" d="M86 717q0 157 53 293.5t148 235.5t233.5 155.5t302.5 56.5t303 -56.5t234.5 -155.5t149 -235.5t53.5 -293.5q0 -280 -168 -484l153 -170l-213 -188l-159 184q-162 -84 -353 -84q-214 0 -383 98t-261.5 267t-92.5 377zM422 717q0 -104 33.5 -189.5t90 -141t128.5 -86 t151 -30.5q71 0 144 29l-129 152l207 174l124 -140q56 106 56 232q0 103 -34 189t-90.5 141.5t-128 85.5t-149.5 30t-150 -30t-129 -85.5t-90.5 -141.5t-33.5 -189z" />
<glyph unicode="R" horiz-adv-x="1300" d="M154 0v1434h510q234 0 361.5 -108.5t127.5 -295.5q0 -272 -285 -373l387 -657h-376l-344 606h-46v-606h-335zM489 891h173q73 0 114 34t41 93q0 60 -41.5 93.5t-113.5 33.5h-173v-254z" />
<glyph unicode="S" horiz-adv-x="1144" d="M47 352l279 115q29 -94 98 -148.5t158 -54.5q77 0 125.5 39t48.5 103q0 54 -37 97.5t-125 88.5q-137 66 -201 102q-248 129 -248 391q0 165 121 269t318 104q159 0 256 -64.5t149 -189.5l-268 -137q-45 109 -137 109q-45 0 -75 -23.5t-30 -62.5t24 -69.5t83 -62.5 q19 -9 107 -55t98 -53q153 -80 223.5 -185t70.5 -257q0 -178 -139.5 -305.5t-363.5 -127.5q-212 0 -341.5 97t-193.5 280z" />
<glyph unicode="T" horiz-adv-x="1116" d="M23 1141v293h1071v-293h-375v-1141h-334v1141h-362z" />
<glyph unicode="U" horiz-adv-x="1495" d="M133 598v836h336v-801q0 -363 279 -363q276 0 276 363v801h338v-836q0 -287 -164 -455t-450 -168t-450.5 168t-164.5 455z" />
<glyph unicode="V" horiz-adv-x="1331" d="M16 1434h353l295 -990l299 990h354l-486 -1434h-333z" />
<glyph unicode="W" horiz-adv-x="1935" d="M16 1434h340l363 -1014l110 319l-258 695h312l102 -310l107 310h288l-256 -668l113 -336l360 1004h322l-543 -1434h-278l-127 371l-131 -371h-289z" />
<glyph unicode="X" horiz-adv-x="1323" d="M12 0l469 748l-426 686h369l242 -406l245 406h357l-424 -680l469 -754h-363l-288 473l-287 -473h-363z" />
<glyph unicode="Y" horiz-adv-x="1222" d="M6 1434h352l252 -519l254 519h353l-439 -842v-592h-336v592z" />
<glyph unicode="Z" horiz-adv-x="1267" d="M86 0v272l666 869h-625v293h1034v-273l-663 -868h684v-293h-1096z" />
<glyph unicode="[" horiz-adv-x="747" d="M154 -410v2044h536v-252h-239v-1540h239v-252h-536z" />
<glyph unicode="\" horiz-adv-x="1157" d="M-12 1505h325l856 -1577h-323z" />
<glyph unicode="]" horiz-adv-x="747" d="M57 -158h240v1540h-240v252h537v-2044h-537v252z" />
<glyph unicode="^" d="M63 510l383 924h297l383 -924h-305l-227 620l-227 -620h-304z" />
<glyph unicode="_" horiz-adv-x="1298" d="M135 -51h1028v-281h-1028v281z" />
<glyph unicode="`" horiz-adv-x="1048" d="M287 1434h340l135 -260h-264z" />
<glyph unicode="a" horiz-adv-x="1325" d="M84 512q0 125 42.5 228.5t112.5 169.5t158 102.5t181 36.5q94 0 171 -32t121 -79l31 86h285v-1024h-273l-43 92q-42 -47 -118.5 -82t-186.5 -35q-97 0 -184.5 39t-153.5 107.5t-104.5 170t-38.5 220.5zM397 512q0 -119 70 -192.5t176 -73.5q105 0 174.5 73.5t69.5 192.5 t-69.5 192.5t-174.5 73.5q-106 0 -176 -73.5t-70 -192.5z" />
<glyph unicode="b" horiz-adv-x="1329" d="M139 0v1464h312v-538q52 54 131.5 88.5t177.5 34.5q97 0 183.5 -34.5t154 -100t107.5 -169.5t40 -233q0 -122 -41.5 -225t-111.5 -170t-160 -104.5t-189 -37.5q-103 0 -184.5 37t-122.5 92l-35 -104h-262zM438 512q0 -118 71 -191t177 -73q105 0 176.5 73t71.5 191 q0 119 -68.5 191.5t-175.5 72.5t-179.5 -73t-72.5 -191z" />
<glyph unicode="c" horiz-adv-x="1169" d="M84 512q0 234 155.5 385.5t387.5 151.5q170 0 293.5 -79t183.5 -218l-285 -117q-54 141 -198 141q-101 0 -162.5 -73t-61.5 -191q0 -116 64.5 -190t165.5 -74q73 0 124 37t76 98l283 -115q-56 -128 -184 -210.5t-305 -82.5q-152 0 -274.5 68t-192.5 191t-70 278z" />
<glyph unicode="d" horiz-adv-x="1329" d="M84 512q0 129 43 233.5t114.5 169.5t159.5 99.5t183 34.5q99 0 176 -33.5t119 -83.5v532h309v-1464h-260l-35 117q-44 -58 -131 -100t-189 -42q-99 0 -187.5 37t-156 104.5t-106.5 170t-39 225.5zM395 512q0 -118 71 -191t177 -73t176 73t70 191t-70 191t-176 73 t-177 -73t-71 -191z" />
<glyph unicode="e" horiz-adv-x="1204" d="M84 512q0 238 144.5 387.5t377.5 149.5q103 0 189.5 -27.5t147.5 -74.5t103.5 -111.5t63 -137.5t20.5 -153q0 -63 -12 -115h-723q12 -87 73.5 -136.5t154.5 -49.5q142 0 213 121l256 -125q-67 -127 -191.5 -196t-294.5 -69q-233 0 -377.5 149t-144.5 388zM397 641h416 q-9 68 -66.5 115t-140.5 47q-84 0 -142 -47.5t-67 -114.5z" />
<glyph unicode="f" horiz-adv-x="788" d="M49 780v244h133v57q0 177 103.5 277t281.5 100q91 0 164 -22v-269q-48 23 -98 23q-62 0 -100.5 -34t-38.5 -91v-41h225v-244h-225v-780h-312v780h-133z" />
<glyph unicode="g" horiz-adv-x="1179" d="M66 23q0 114 54.5 206t143.5 150q-60 46 -93.5 115.5t-33.5 150.5q0 172 123 288t324 116h514v-218l-142 -28q72 -79 72 -191q0 -69 -35.5 -135t-89.5 -98q85 -44 142 -143t57 -213q0 -135 -68.5 -240t-185.5 -161t-262 -56q-146 0 -264 56t-187 161t-69 240zM369 29 q0 -89 63.5 -145t153.5 -56q89 0 151 56t62 145q0 91 -62.5 147.5t-150.5 56.5q-89 0 -153 -56.5t-64 -147.5zM422 631q0 -69 46.5 -117.5t115.5 -48.5q70 0 111.5 47.5t41.5 118.5q0 70 -42.5 120t-110.5 50q-67 0 -114.5 -51t-47.5 -119z" />
<glyph unicode="h" horiz-adv-x="1243" d="M139 0v1464h312v-540q44 57 123.5 91t181.5 34q165 0 264.5 -103.5t99.5 -302.5v-643h-311v573q0 95 -44 147t-124 52q-79 0 -134.5 -72.5t-55.5 -207.5v-492h-312z" />
<glyph unicode="i" horiz-adv-x="585" d="M133 1151v301h320v-301h-320zM137 0v1024h312v-1024h-312z" />
<glyph unicode="j" horiz-adv-x="587" d="M133 1151v301h322v-301h-322zM137 -434v1458h314v-1403z" />
<glyph unicode="k" horiz-adv-x="1171" d="M139 0v1464h312v-784l284 344h379l-426 -473l449 -551h-392l-294 387v-387h-312z" />
<glyph unicode="l" horiz-adv-x="589" d="M139 0v1464h312v-1464h-312z" />
<glyph unicode="m" horiz-adv-x="1839" d="M139 0v1024h262l37 -131q40 66 120.5 111t182.5 45q196 0 285 -156q39 66 122 111t193 45q167 0 270 -104t103 -302v-643h-309v596q0 176 -137 176q-80 0 -132.5 -68.5t-52.5 -205.5v-498h-311v596q0 176 -137 176q-79 0 -131.5 -71.5t-52.5 -208.5v-492h-312z" />
<glyph unicode="n" horiz-adv-x="1236" d="M139 0v1024h262l37 -131q39 65 125 110.5t189 45.5q166 0 264 -103.5t98 -302.5v-643h-311v573q0 96 -42.5 147.5t-121.5 51.5q-81 0 -134.5 -71.5t-53.5 -208.5v-492h-312z" />
<glyph unicode="o" horiz-adv-x="1271" d="M84 512q0 155 73 278.5t199.5 191t280.5 67.5t280 -67.5t199.5 -191t73.5 -278.5t-73.5 -278.5t-199.5 -191t-280 -67.5t-280.5 67.5t-199.5 191t-73 278.5zM397 512q0 -115 68 -189.5t172 -74.5q103 0 171.5 74.5t68.5 189.5q0 116 -68 190t-172 74q-105 0 -172.5 -74 t-67.5 -190z" />
<glyph unicode="p" horiz-adv-x="1329" d="M139 -410v1434h262l35 -117q46 59 135.5 100.5t192.5 41.5q98 0 185 -37t153 -105t104.5 -170t38.5 -225q0 -129 -43 -233.5t-114.5 -169.5t-160 -99.5t-184.5 -34.5q-99 0 -175.5 33.5t-116.5 83.5v-502h-312zM438 512q0 -118 71 -191t177 -73t177 73t71 191t-71.5 191 t-176.5 73t-176.5 -73t-71.5 -191z" />
<glyph unicode="q" horiz-adv-x="1329" d="M84 512q0 122 41.5 225t111 170t159.5 104.5t188 37.5q104 0 185 -37t124 -92l35 104h260v-1434h-309v508q-54 -54 -134 -88.5t-178 -34.5q-96 0 -182 34.5t-153.5 99.5t-107.5 169.5t-40 233.5zM395 512q0 -119 68.5 -191.5t175.5 -72.5q106 0 178 73t72 191t-70 191 t-176 73q-105 0 -176.5 -73t-71.5 -191z" />
<glyph unicode="r" horiz-adv-x="876" d="M139 0v1024h264l27 -133q40 77 113.5 117.5t161.5 40.5q77 0 143 -25l-60 -317q-66 32 -143 32q-87 0 -140.5 -58t-53.5 -169v-512h-312z" />
<glyph unicode="s" horiz-adv-x="933" d="M47 246l234 108q29 -66 77.5 -99.5t108.5 -33.5q55 0 85 23.5t30 56.5q0 35 -28.5 60.5t-94.5 50.5l-133 49q-102 38 -157.5 113.5t-55.5 185.5q0 125 98.5 207t249.5 82q246 0 338 -191l-226 -123q-15 38 -42.5 60t-61.5 22q-32 0 -52 -16t-20 -41t16 -41t50 -29 l143 -53q125 -45 191.5 -125t66.5 -209q0 -144 -111 -236t-292 -92q-160 0 -265.5 72.5t-148.5 198.5z" />
<glyph unicode="t" horiz-adv-x="749" d="M47 780v244h148v270l309 60v-330h217v-244h-217v-780h-309v780h-148z" />
<glyph unicode="u" horiz-adv-x="1249" d="M127 389v635h311v-580q0 -94 44.5 -143t123.5 -49q84 0 138.5 70t54.5 202v500h311v-1024h-262l-35 131q-41 -65 -128 -110.5t-191 -45.5q-168 0 -267.5 105.5t-99.5 308.5z" />
<glyph unicode="v" horiz-adv-x="1083" d="M4 1024h313l226 -698l221 698h315l-372 -1024h-330z" />
<glyph unicode="w" horiz-adv-x="1617" d="M8 1024h316l186 -698l168 462l-80 236h309l205 -696l180 696h318l-336 -1024h-322l-143 416l-143 -416h-322z" />
<glyph unicode="x" horiz-adv-x="1069" d="M4 0l356 537l-325 487h342l158 -262l155 262h344l-327 -487l358 -537h-346l-184 309l-187 -309h-344z" />
<glyph unicode="y" horiz-adv-x="1093" d="M0 1024h332l227 -633l209 633h324l-541 -1434h-315l170 463z" />
<glyph unicode="z" horiz-adv-x="964" d="M61 0v250l441 504h-408v270h793v-250l-445 -504h459v-270h-840z" />
<glyph unicode="{" horiz-adv-x="851" d="M70 489v299h55q84 0 124 30.5t40 103.5v323q0 194 115 291.5t354 97.5h45v-260h-45q-87 0 -131.5 -46t-44.5 -130v-324q0 -99 -47 -158t-125 -77q78 -18 125 -77t47 -156v-379q0 -84 44.5 -130.5t131.5 -46.5h45v-260h-45q-239 0 -354 98t-115 292v376q0 73 -39.5 103 t-124.5 30h-55z" />
<glyph unicode="|" horiz-adv-x="598" d="M150 -369v1874h296v-1874h-296z" />
<glyph unicode="}" horiz-adv-x="851" d="M49 -150h45q87 0 131.5 46.5t44.5 130.5v379q0 97 47 156t125 77q-78 18 -125 77t-47 158v324q0 84 -44.5 130t-131.5 46h-45v260h45q239 0 354 -97.5t115 -291.5v-323q0 -73 40 -103.5t124 -30.5h55v-299h-55q-85 0 -124.5 -30t-39.5 -103v-376q0 -194 -115 -292 t-354 -98h-45v260z" />
<glyph unicode="~" d="M96 508q0 198 82.5 307t214.5 109q60 0 120.5 -23t100 -51t81.5 -51t69 -23q51 0 67.5 35.5t16.5 112.5h246q0 -199 -83 -307.5t-214 -108.5q-62 0 -123 23t-100 50.5t-80 50.5t-68 23q-50 0 -67 -36.5t-17 -110.5h-246z" />
<glyph unicode="&#xa1;" horiz-adv-x="602" d="M139 735v289h324v-289h-324zM154 -410v1000h295v-1000h-295z" />
<glyph unicode="&#xa2;" d="M96 512q0 191 105 329.5t276 184.5v195h283v-185q127 -25 217.5 -98t138.5 -186l-285 -117q-54 141 -198 141q-101 0 -162 -73t-61 -191q0 -116 64 -190t165 -74q73 0 124.5 37t76.5 98l282 -115q-44 -103 -138 -178t-224 -102v-185h-283v193q-171 46 -276 185t-105 331z " />
<glyph unicode="&#xa3;" d="M94 600v223h135v209q0 185 124 305.5t333 120.5q134 0 246 -67.5t168 -165.5l-234 -183q-65 109 -164 109q-66 0 -106.5 -44.5t-40.5 -133.5v-150h340v-223h-340v-324h541v-276h-994v276h127v324h-135z" />
<glyph unicode="&#xa4;" d="M68 385l161 156q-32 82 -32 176q0 105 32 176l-161 156l198 196l150 -155q81 38 180 38q101 0 182 -38l150 155l196 -196l-159 -156q30 -76 30 -176q0 -99 -30 -176l159 -156l-196 -197l-150 156q-80 -41 -182 -41t-182 41l-150 -156zM446 717q0 -89 42 -141t108 -52 q67 0 108 51.5t41 141.5t-41.5 140t-107.5 50q-65 0 -107.5 -50.5t-42.5 -139.5z" />
<glyph unicode="&#xa5;" d="M14 1434h346l230 -375l239 375h345l-314 -449h131v-223h-233v-90h233v-223h-233v-449h-336v449h-232v223h232v90h-232v223h132z" />
<glyph unicode="&#xa6;" horiz-adv-x="598" d="M150 -369v793h296v-793h-296zM150 711v794h296v-794h-296z" />
<glyph unicode="&#xa7;" horiz-adv-x="1214" d="M113 -113l274 125q26 -73 81.5 -118.5t127.5 -45.5q52 0 84.5 26t32.5 65q0 38 -25.5 69t-85.5 68l-194 125q-48 31 -81.5 56.5t-73.5 66.5t-64.5 83.5t-41 102.5t-16.5 129q0 168 145 276q-57 82 -57 183q0 161 118.5 260.5t311.5 99.5q304 0 404 -254l-265 -137 q-45 111 -139 111q-44 0 -73 -22t-29 -58q0 -34 22.5 -61.5t77.5 -57.5l189 -105q151 -83 216.5 -186t65.5 -256q0 -163 -137 -291q55 -86 55 -190q0 -169 -119.5 -277t-320.5 -108q-360 0 -483 321zM453 633q0 -56 33.5 -96t115.5 -95l125 -80q4 -1 47 -30q37 40 37 96 q0 68 -36.5 118t-135.5 105l-131 74q-55 -30 -55 -92z" />
<glyph unicode="&#xa8;" horiz-adv-x="1048" d="M227 1190v223h236v-223h-236zM586 1190v223h235v-223h-235z" />
<glyph unicode="&#xa9;" horiz-adv-x="1724" d="M92 717q0 160 57 301.5t157.5 244t244.5 161.5t311 59t311 -59t244.5 -161.5t157.5 -244t57 -301.5q0 -213 -99.5 -388t-276.5 -276.5t-394 -101.5t-394 101.5t-276.5 276.5t-99.5 388zM291 717q0 -168 75.5 -301t205.5 -206t290 -73t291 73t207 206t76 301 q0 126 -44.5 234.5t-121.5 183.5t-182.5 118t-225.5 43q-160 0 -290 -72.5t-205.5 -205.5t-75.5 -301zM430 717q0 184 123 313t309 129q140 0 239 -65.5t144 -163.5l-207 -111q-28 54 -67 79.5t-107 25.5q-77 0 -130.5 -61t-53.5 -146q0 -86 52.5 -146.5t131.5 -60.5 q68 0 108 24.5t68 75.5l207 -114q-50 -99 -147 -160.5t-238 -61.5q-186 0 -309 129.5t-123 313.5z" />
<glyph unicode="&#xaa;" horiz-adv-x="935" d="M82 1055q0 89 29.5 159.5t77 111.5t102.5 62t112 21q120 0 187 -63l20 47h215v-676h-202l-33 53q-22 -19 -38 -30t-61.5 -25.5t-99.5 -14.5q-127 0 -218 96.5t-91 258.5zM143 389v205h682v-205h-682zM313 1055q0 -70 41 -111t103 -41q59 0 100 41t41 111q0 69 -41 110 t-100 41q-62 0 -103 -40.5t-41 -110.5z" />
<glyph unicode="&#xab;" horiz-adv-x="1075" d="M55 532l203 373h309l-205 -368l205 -377h-309zM508 532l203 373h309l-205 -368l205 -377h-309z" />
<glyph unicode="&#xac;" d="M133 578v278h924v-688h-279v410h-645z" />
<glyph unicode="&#xad;" horiz-adv-x="921" d="M135 381v278h651v-278h-651z" />
<glyph unicode="&#xae;" horiz-adv-x="978" d="M72 1122q0 180 116 300t299 120q185 0 302.5 -119.5t117.5 -300.5q0 -178 -119.5 -297.5t-300.5 -119.5q-178 0 -296.5 119.5t-118.5 297.5zM197 1122q0 -129 83.5 -214t206.5 -85q125 0 210 84.5t85 214.5t-85 214.5t-210 84.5q-123 0 -206.5 -85t-83.5 -214zM340 922 v411h168q66 0 111 -41.5t45 -101.5q0 -43 -25 -75.5t-61 -47.5l92 -145h-131l-72 131h-6v-131h-121zM461 1147h31q25 0 39 11.5t14 29.5q0 17 -15 29t-38 12h-31v-82z" />
<glyph unicode="&#xaf;" horiz-adv-x="1048" d="M211 1204v209h627v-209h-627z" />
<glyph unicode="&#xb0;" horiz-adv-x="788" d="M86 1151q0 129 88 217t221 88q131 0 219 -88.5t88 -216.5q0 -130 -88 -218.5t-219 -88.5q-133 0 -221 88.5t-88 218.5zM279 1151q0 -56 32 -89.5t84 -33.5q51 0 83 34t32 89q0 54 -32 88.5t-83 34.5q-52 0 -84 -34.5t-32 -88.5z" />
<glyph unicode="&#xb1;" d="M133 127v279h322v221h-322v276h322v322h280v-322h322v-276h-322v-221h322v-279h-924z" />
<glyph unicode="&#xb2;" horiz-adv-x="786" d="M76 717v186q4 5 55.5 46t116 93.5t92.5 77.5q80 63 98 84q25 30 25 58q0 32 -22.5 52.5t-57.5 20.5q-36 0 -57.5 -28t-28.5 -64l-203 60q10 48 31.5 90t57 78.5t91.5 57.5t127 21q128 0 210.5 -73t82.5 -179q0 -83 -29 -138t-96 -111l-172 -144h301v-188h-622z" />
<glyph unicode="&#xb3;" horiz-adv-x="796" d="M63 915l209 74q10 -32 39.5 -57t69.5 -25q48 0 76 23.5t28 58.5q0 28 -24 54.5t-74 31.5l-127 15v141l141 117h-280v188h551v-176l-166 -131q92 -22 151.5 -80.5t59.5 -149.5q0 -140 -90.5 -218.5t-239.5 -78.5q-261 0 -324 213z" />
<glyph unicode="&#xb4;" horiz-adv-x="1048" d="M287 1174l135 260h340l-211 -260h-264z" />
<glyph unicode="&#xb5;" horiz-adv-x="1261" d="M139 -410v1434h312v-580q0 -94 44 -143t123 -49q84 0 139.5 70t55.5 202v500h309v-1024h-262l-35 119q-35 -60 -105 -102t-145 -42q-76 0 -124 33v-418h-312z" />
<glyph unicode="&#xb6;" horiz-adv-x="1271" d="M78 1096q0 143 100 240.5t252 97.5h275v-1434h-275v760q-154 0 -253 94t-99 242zM850 0v1434h274v-1434h-274z" />
<glyph unicode="&#xb7;" horiz-adv-x="620" d="M147 436v318h326v-318h-326z" />
<glyph unicode="&#xb8;" horiz-adv-x="1048" d="M276 -414l84 135q60 -51 121 -51q33 0 57.5 16t24.5 44q0 26 -22 42.5t-56 16.5q-37 0 -69 -20l-99 77l136 191h176l-94 -119q85 5 145.5 -49t60.5 -139q0 -91 -65.5 -152t-188.5 -61q-120 0 -211 69z" />
<glyph unicode="&#xb9;" horiz-adv-x="563" d="M68 1221v209l176 106h207v-819h-232v583z" />
<glyph unicode="&#xba;" horiz-adv-x="905" d="M82 1057q0 159 106.5 256.5t264.5 97.5t264 -97.5t106 -256.5q0 -160 -106 -257.5t-264 -97.5t-264.5 97.5t-106.5 257.5zM143 389v205h619v-205h-619zM313 1057q0 -65 40.5 -107.5t99.5 -42.5t99 42.5t40 107.5t-40 106t-99 41q-60 0 -100 -41t-40 -106z" />
<glyph unicode="&#xbb;" horiz-adv-x="1054" d="M45 160l205 368l-205 377h309l203 -373l-203 -372h-309zM498 160l204 368l-204 377h309l203 -373l-203 -372h-309z" />
<glyph unicode="&#xbc;" horiz-adv-x="1992" d="M123 1118v209l176 107h207v-820h-232v584zM385 18l918 1508l186 -111l-920 -1505zM1106 133v172l362 514h211v-504h119v-182h-119v-133h-231v133h-342zM1300 315h148v199z" />
<glyph unicode="&#xbd;" horiz-adv-x="1992" d="M160 1118v209l176 107h207v-820h-232v584zM381 18l917 1508l187 -111l-920 -1505zM1159 0v186q4 5 55.5 46t116 93.5t92.5 77.5q80 63 98 84q25 30 25 58q0 32 -22.5 52.5t-57.5 20.5q-36 0 -57.5 -28t-28.5 -64l-202 60q10 49 31.5 90.5t57 78.5t91.5 58t127 21 q128 0 210.5 -73t82.5 -179q0 -83 -29 -138.5t-96 -111.5l-172 -144h301v-188h-623z" />
<glyph unicode="&#xbe;" horiz-adv-x="1992" d="M92 813l209 74q10 -32 39.5 -57t69.5 -25q48 0 76 23.5t28 58.5q0 28 -24 54.5t-74 31.5l-127 14v141l141 117h-280v189h550v-177l-165 -131q92 -22 151 -80t59 -149q0 -140 -90 -218.5t-239 -78.5q-261 0 -324 213zM473 18l918 1508l186 -111l-920 -1505zM1161 133v172 l363 514h211v-504h118v-182h-118v-133h-232v133h-342zM1356 315h147v199z" />
<glyph unicode="&#xbf;" horiz-adv-x="1021" d="M35 2q0 157 86 267t239 147v174h289v-400l-147 -20q-71 -8 -112.5 -49t-41.5 -107q0 -63 47 -108t119 -45q66 0 112.5 39.5t65.5 105.5l285 -86q-42 -166 -168 -260t-297 -94q-210 0 -343.5 122.5t-133.5 313.5zM344 739v285h320v-285h-320z" />
<glyph unicode="&#xc0;" horiz-adv-x="1390" d="M4 0l535 1434h319l528 -1434h-335l-101 283h-512l-102 -283h-332zM354 1823h340l135 -260h-264zM537 575h315l-158 463z" />
<glyph unicode="&#xc1;" horiz-adv-x="1390" d="M4 0l535 1434h319l528 -1434h-335l-101 283h-512l-102 -283h-332zM537 575h315l-158 463zM561 1563l135 260h340l-211 -260h-264z" />
<glyph unicode="&#xc2;" horiz-adv-x="1390" d="M4 0l535 1434h319l528 -1434h-335l-101 283h-512l-102 -283h-332zM334 1563l217 260h293l211 -260h-275l-86 125l-86 -125h-274zM537 575h315l-158 463z" />
<glyph unicode="&#xc3;" horiz-adv-x="1390" d="M4 0l535 1434h319l528 -1434h-335l-101 283h-512l-102 -283h-332zM348 1546q-21 133 37 212t172 79q48 0 97.5 -24.5t89 -49t63.5 -24.5q66 0 43 98h188q27 -133 -32 -212t-177 -79q-51 0 -100 25t-87 49.5t-62 24.5q-64 0 -41 -99h-191zM537 575h315l-158 463z" />
<glyph unicode="&#xc4;" horiz-adv-x="1390" d="M4 0l535 1434h319l528 -1434h-335l-101 283h-512l-102 -283h-332zM397 1581v223h236v-223h-236zM537 575h315l-158 463zM756 1581v223h235v-223h-235z" />
<glyph unicode="&#xc5;" horiz-adv-x="1390" d="M4 0l535 1434h319l528 -1434h-335l-101 283h-512l-102 -283h-332zM463 1729q0 92 66.5 159.5t164.5 67.5q97 0 164.5 -67.5t67.5 -159.5q0 -91 -67.5 -159.5t-164.5 -68.5q-98 0 -164.5 68.5t-66.5 159.5zM537 575h315l-158 463zM627 1729q0 -28 19.5 -47t47.5 -19t47 19 t19 47t-19 46.5t-47 18.5t-47.5 -18.5t-19.5 -46.5z" />
<glyph unicode="&#xc6;" horiz-adv-x="1927" d="M-16 0l643 1434h1183v-293h-626v-250h585v-295h-585v-303h626v-293h-962v283h-395l-123 -283h-346zM580 575h268v566h-23z" />
<glyph unicode="&#xc7;" horiz-adv-x="1484" d="M92 717q0 212 88 380t254 264.5t383 96.5q215 0 371.5 -89.5t238.5 -256.5l-284 -162q-100 211 -336 211q-158 0 -268.5 -123t-110.5 -321q0 -104 32 -189.5t86.5 -140.5t124 -85t146.5 -30q117 0 205 54.5t135 148.5l291 -133q-77 -162 -232.5 -259.5t-375.5 -107.5 l-47 -57q85 5 145.5 -49t60.5 -139q0 -91 -65.5 -152t-188.5 -61q-119 0 -210 69l83 135q60 -51 121 -51q33 0 57.5 16t24.5 44q0 26 -22 42.5t-56 16.5q-37 0 -69 -20l-99 77l99 140q-173 27 -305.5 128.5t-204.5 258t-72 344.5z" />
<glyph unicode="&#xc8;" horiz-adv-x="1232" d="M154 0v1434h962v-293h-627v-250h586v-295h-586v-303h627v-293h-962zM295 1823h340l135 -260h-264z" />
<glyph unicode="&#xc9;" horiz-adv-x="1232" d="M154 0v1434h962v-293h-627v-250h586v-295h-586v-303h627v-293h-962zM502 1563l135 260h340l-211 -260h-264z" />
<glyph unicode="&#xca;" horiz-adv-x="1232" d="M154 0v1434h962v-293h-627v-250h586v-295h-586v-303h627v-293h-962zM274 1563l218 260h292l211 -260h-274l-86 125l-86 -125h-275z" />
<glyph unicode="&#xcb;" horiz-adv-x="1232" d="M154 0v1434h962v-293h-627v-250h586v-295h-586v-303h627v-293h-962zM338 1581v223h235v-223h-235zM696 1581v223h236v-223h-236z" />
<glyph unicode="&#xcc;" horiz-adv-x="643" d="M-18 1823h340l135 -260h-264zM154 0v1434h335v-1434h-335z" />
<glyph unicode="&#xcd;" horiz-adv-x="643" d="M154 0v1434h335v-1434h-335zM188 1563l136 260h340l-211 -260h-265z" />
<glyph unicode="&#xce;" horiz-adv-x="643" d="M-39 1563l217 260h293l211 -260h-274l-86 125l-86 -125h-275zM154 0v1434h335v-1434h-335z" />
<glyph unicode="&#xcf;" horiz-adv-x="643" d="M25 1581v223h235v-223h-235zM154 0v1434h335v-1434h-335zM383 1581v223h235v-223h-235z" />
<glyph unicode="&#xd0;" horiz-adv-x="1470" d="M18 573v287h154v574h477q175 0 317 -54t234.5 -150t142.5 -227t50 -286t-51.5 -286.5t-146 -227t-235.5 -149.5t-311 -54h-477v573h-154zM506 293h151q183 0 291.5 108t108.5 316q0 207 -109 315.5t-291 108.5h-151v-281h227v-287h-227v-280z" />
<glyph unicode="&#xd1;" horiz-adv-x="1503" d="M154 0v1434h366l500 -893v893h330v-1434h-365l-502 866v-866h-329zM406 1546q-22 133 36 212t172 79q48 0 97.5 -24.5t89 -49t63.5 -24.5q66 0 43 98h189q27 -133 -32 -212t-177 -79q-51 0 -100.5 25t-87.5 49.5t-62 24.5q-64 0 -41 -99h-190z" />
<glyph unicode="&#xd2;" horiz-adv-x="1660" d="M92 717q0 157 53 293.5t148 235.5t233.5 155.5t302.5 56.5t303 -56.5t234.5 -155.5t149 -235.5t53.5 -293.5q0 -155 -55 -292t-151 -236t-235 -156.5t-299 -57.5q-214 0 -383 98t-261.5 267t-92.5 377zM428 717q0 -104 33.5 -190t89.5 -142t128.5 -86.5t151.5 -30.5 q78 0 150 30.5t127.5 86.5t89 142t33.5 190q0 103 -33.5 189.5t-89.5 142t-127.5 86t-149.5 30.5t-150.5 -30.5t-129 -86t-90 -142t-33.5 -189.5zM492 1823h339l136 -260h-265z" />
<glyph unicode="&#xd3;" horiz-adv-x="1660" d="M92 717q0 157 53 293.5t148 235.5t233.5 155.5t302.5 56.5t303 -56.5t234.5 -155.5t149 -235.5t53.5 -293.5q0 -155 -55 -292t-151 -236t-235 -156.5t-299 -57.5q-214 0 -383 98t-261.5 267t-92.5 377zM428 717q0 -104 33.5 -190t89.5 -142t128.5 -86.5t151.5 -30.5 q78 0 150 30.5t127.5 86.5t89 142t33.5 190q0 103 -33.5 189.5t-89.5 142t-127.5 86t-149.5 30.5t-150.5 -30.5t-129 -86t-90 -142t-33.5 -189.5zM698 1563l136 260h340l-211 -260h-265z" />
<glyph unicode="&#xd4;" horiz-adv-x="1660" d="M92 717q0 157 53 293.5t148 235.5t233.5 155.5t302.5 56.5t303 -56.5t234.5 -155.5t149 -235.5t53.5 -293.5q0 -155 -55 -292t-151 -236t-235 -156.5t-299 -57.5q-214 0 -383 98t-261.5 267t-92.5 377zM428 717q0 -104 33.5 -190t89.5 -142t128.5 -86.5t151.5 -30.5 q78 0 150 30.5t127.5 86.5t89 142t33.5 190q0 103 -33.5 189.5t-89.5 142t-127.5 86t-149.5 30.5t-150.5 -30.5t-129 -86t-90 -142t-33.5 -189.5zM471 1563l217 260h293l211 -260h-274l-87 125l-86 -125h-274z" />
<glyph unicode="&#xd5;" horiz-adv-x="1660" d="M92 717q0 157 53 293.5t148 235.5t233.5 155.5t302.5 56.5t303 -56.5t234.5 -155.5t149 -235.5t53.5 -293.5q0 -155 -55 -292t-151 -236t-235 -156.5t-299 -57.5q-214 0 -383 98t-261.5 267t-92.5 377zM428 717q0 -104 33.5 -190t89.5 -142t128.5 -86.5t151.5 -30.5 q78 0 150 30.5t127.5 86.5t89 142t33.5 190q0 103 -33.5 189.5t-89.5 142t-127.5 86t-149.5 30.5t-150.5 -30.5t-129 -86t-90 -142t-33.5 -189.5zM485 1546q-21 133 37 212t172 79q48 0 97.5 -24.5t89 -49t63.5 -24.5q66 0 43 98h189q27 -133 -32 -212t-177 -79 q-51 0 -100.5 25t-87.5 49.5t-62 24.5q-64 0 -41 -99h-191z" />
<glyph unicode="&#xd6;" horiz-adv-x="1660" d="M92 717q0 157 53 293.5t148 235.5t233.5 155.5t302.5 56.5t303 -56.5t234.5 -155.5t149 -235.5t53.5 -293.5q0 -155 -55 -292t-151 -236t-235 -156.5t-299 -57.5q-214 0 -383 98t-261.5 267t-92.5 377zM428 717q0 -104 33.5 -190t89.5 -142t128.5 -86.5t151.5 -30.5 q78 0 150 30.5t127.5 86.5t89 142t33.5 190q0 103 -33.5 189.5t-89.5 142t-127.5 86t-149.5 30.5t-150.5 -30.5t-129 -86t-90 -142t-33.5 -189.5zM535 1581v223h235v-223h-235zM893 1581v223h235v-223h-235z" />
<glyph unicode="&#xd7;" d="M158 961l198 198l242 -246l238 242l194 -190l-239 -242l241 -246l-198 -198l-242 243l-238 -241l-194 190l239 244z" />
<glyph unicode="&#xd8;" horiz-adv-x="1660" d="M92 717q0 157 53 293.5t148 235.5t233.5 155.5t302.5 56.5q222 0 400 -104l106 123l185 -152l-111 -127q160 -203 160 -481q0 -155 -55 -292t-151 -236t-235 -156.5t-299 -57.5q-218 0 -393 107l-108 -125l-185 152l113 129q-164 200 -164 479zM428 717q0 -123 53 -221 l539 618q-88 51 -189 51q-78 0 -150.5 -30.5t-129 -86t-90 -142t-33.5 -189.5zM643 319q88 -51 188 -51q78 0 150 30.5t127.5 86.5t89 142t33.5 190q0 125 -51 219z" />
<glyph unicode="&#xd9;" horiz-adv-x="1495" d="M133 598v836h336v-801q0 -363 279 -363q276 0 276 363v801h338v-836q0 -287 -164 -455t-450 -168t-450.5 168t-164.5 455zM408 1823h340l135 -260h-265z" />
<glyph unicode="&#xda;" horiz-adv-x="1495" d="M133 598v836h336v-801q0 -363 279 -363q276 0 276 363v801h338v-836q0 -287 -164 -455t-450 -168t-450.5 168t-164.5 455zM614 1563l136 260h340l-211 -260h-265z" />
<glyph unicode="&#xdb;" horiz-adv-x="1495" d="M133 598v836h336v-801q0 -363 279 -363q276 0 276 363v801h338v-836q0 -287 -164 -455t-450 -168t-450.5 168t-164.5 455zM387 1563l217 260h293l211 -260h-274l-86 125l-86 -125h-275z" />
<glyph unicode="&#xdc;" horiz-adv-x="1495" d="M133 598v836h336v-801q0 -363 279 -363q276 0 276 363v801h338v-836q0 -287 -164 -455t-450 -168t-450.5 168t-164.5 455zM451 1581v223h235v-223h-235zM809 1581v223h235v-223h-235z" />
<glyph unicode="&#xdd;" horiz-adv-x="1222" d="M6 1434h352l252 -519l254 519h353l-439 -842v-592h-336v592zM477 1563l135 260h340l-211 -260h-264z" />
<glyph unicode="&#xde;" horiz-adv-x="1232" d="M113 0v1434h336v-242h200q238 0 369 -123.5t131 -320.5q0 -208 -140.5 -338.5t-369.5 -130.5h-190v-279h-336zM449 573h192q77 0 125.5 46t48.5 116q0 71 -48.5 116.5t-125.5 45.5h-192v-324z" />
<glyph unicode="&#xdf;" horiz-adv-x="1300" d="M139 0v1028q0 211 91.5 321.5t293.5 110.5q102 0 172 -22v-275q-44 23 -112 23q-63 0 -98 -34t-35 -99v-60h712v-274l-245 -279q140 -50 228.5 -157t88.5 -252q0 -204 -152.5 -334.5t-398.5 -130.5q-110 0 -223 26v271q102 -27 178 -27q117 0 200 54t83 143 q0 100 -93 150t-241 50v222l223 262h-360v-717h-312z" />
<glyph unicode="&#xe0;" horiz-adv-x="1325" d="M84 512q0 125 42.5 228.5t112.5 169.5t158 102.5t181 36.5q94 0 171 -32t121 -79l31 86h285v-1024h-273l-43 92q-42 -47 -118.5 -82t-186.5 -35q-97 0 -184.5 39t-153.5 107.5t-104.5 170t-38.5 220.5zM309 1434h340l135 -260h-264zM397 512q0 -119 70 -192.5t176 -73.5 q105 0 174.5 73.5t69.5 192.5t-69.5 192.5t-174.5 73.5q-106 0 -176 -73.5t-70 -192.5z" />
<glyph unicode="&#xe1;" horiz-adv-x="1325" d="M84 512q0 125 42.5 228.5t112.5 169.5t158 102.5t181 36.5q94 0 171 -32t121 -79l31 86h285v-1024h-273l-43 92q-42 -47 -118.5 -82t-186.5 -35q-97 0 -184.5 39t-153.5 107.5t-104.5 170t-38.5 220.5zM397 512q0 -119 70 -192.5t176 -73.5q105 0 174.5 73.5t69.5 192.5 t-69.5 192.5t-174.5 73.5q-106 0 -176 -73.5t-70 -192.5zM516 1174l135 260h340l-211 -260h-264z" />
<glyph unicode="&#xe2;" horiz-adv-x="1325" d="M84 512q0 125 42.5 228.5t112.5 169.5t158 102.5t181 36.5q94 0 171 -32t121 -79l31 86h285v-1024h-273l-43 92q-42 -47 -118.5 -82t-186.5 -35q-97 0 -184.5 39t-153.5 107.5t-104.5 170t-38.5 220.5zM289 1174l217 260h293l211 -260h-275l-86 124l-86 -124h-274z M397 512q0 -119 70 -192.5t176 -73.5q105 0 174.5 73.5t69.5 192.5t-69.5 192.5t-174.5 73.5q-106 0 -176 -73.5t-70 -192.5z" />
<glyph unicode="&#xe3;" horiz-adv-x="1325" d="M84 512q0 125 42.5 228.5t112.5 169.5t158 102.5t181 36.5q94 0 171 -32t121 -79l31 86h285v-1024h-273l-43 92q-42 -47 -118.5 -82t-186.5 -35q-97 0 -184.5 39t-153.5 107.5t-104.5 170t-38.5 220.5zM303 1157q-21 133 37 212t172 79q48 0 97.5 -24.5t89 -49 t63.5 -24.5q66 0 43 98h188q27 -133 -32 -212t-177 -79q-51 0 -100 24.5t-87 49t-62 24.5q-64 0 -41 -98h-191zM397 512q0 -119 70 -192.5t176 -73.5q105 0 174.5 73.5t69.5 192.5t-69.5 192.5t-174.5 73.5q-106 0 -176 -73.5t-70 -192.5z" />
<glyph unicode="&#xe4;" horiz-adv-x="1325" d="M84 512q0 125 42.5 228.5t112.5 169.5t158 102.5t181 36.5q94 0 171 -32t121 -79l31 86h285v-1024h-273l-43 92q-42 -47 -118.5 -82t-186.5 -35q-97 0 -184.5 39t-153.5 107.5t-104.5 170t-38.5 220.5zM352 1190v223h236v-223h-236zM397 512q0 -119 70 -192.5t176 -73.5 q105 0 174.5 73.5t69.5 192.5t-69.5 192.5t-174.5 73.5q-106 0 -176 -73.5t-70 -192.5zM711 1190v223h235v-223h-235z" />
<glyph unicode="&#xe5;" horiz-adv-x="1325" d="M84 512q0 125 42.5 228.5t112.5 169.5t158 102.5t181 36.5q94 0 171 -32t121 -79l31 86h285v-1024h-273l-43 92q-42 -47 -118.5 -82t-186.5 -35q-97 0 -184.5 39t-153.5 107.5t-104.5 170t-38.5 220.5zM397 512q0 -119 70 -192.5t176 -73.5q105 0 174.5 73.5t69.5 192.5 t-69.5 192.5t-174.5 73.5q-106 0 -176 -73.5t-70 -192.5zM418 1339q0 93 66.5 160.5t164.5 67.5q97 0 164.5 -68t67.5 -160q0 -91 -67.5 -159t-164.5 -68q-98 0 -164.5 68t-66.5 159zM582 1339q0 -28 19.5 -46.5t47.5 -18.5t47 18.5t19 46.5t-19 47t-47 19t-47.5 -19 t-19.5 -47z" />
<glyph unicode="&#xe6;" horiz-adv-x="2039" d="M80 512q0 125 42 228.5t112 169.5t158 102.5t181 36.5q95 0 172 -32t121 -79l31 86h248v-117q55 69 139 105.5t184 36.5q81 0 152.5 -20t125 -55t97 -82.5t69.5 -103t42 -116t14.5 -122t-12.5 -120.5h-731q12 -86 76.5 -136t158.5 -50q142 0 213 121l256 -125 q-67 -128 -186.5 -196.5t-284.5 -68.5q-92 0 -178.5 37.5t-134.5 96.5v-109h-236l-43 92q-42 -47 -118.5 -82t-186.5 -35q-97 0 -184.5 39t-153.5 107.5t-104.5 170t-38.5 220.5zM393 512q0 -119 71.5 -192.5t178.5 -73.5q105 0 176.5 73.5t71.5 192.5t-71.5 192.5 t-176.5 73.5q-107 0 -178.5 -73.5t-71.5 -192.5zM1229 641h422q-9 68 -67.5 115t-139.5 47q-84 0 -145 -48t-70 -114z" />
<glyph unicode="&#xe7;" horiz-adv-x="1169" d="M84 512q0 234 155.5 385.5t387.5 151.5q170 0 293.5 -79t183.5 -218l-285 -117q-54 141 -198 141q-101 0 -162.5 -73t-61.5 -191q0 -116 64.5 -190t165.5 -74q73 0 124 37t76 98l283 -115q-52 -119 -166.5 -199.5t-271.5 -91.5l-47 -59q85 5 145.5 -49t60.5 -139 q0 -91 -65 -152t-188 -61q-120 0 -211 69l84 135q60 -51 120 -51q33 0 57.5 16t24.5 44q0 26 -22 42.5t-56 16.5q-37 0 -69 -20l-98 77l98 140q-188 36 -305 179.5t-117 346.5z" />
<glyph unicode="&#xe8;" horiz-adv-x="1204" d="M84 512q0 238 144.5 387.5t377.5 149.5q103 0 189.5 -27.5t147.5 -74.5t103.5 -111.5t63 -137.5t20.5 -153q0 -63 -12 -115h-723q12 -87 73.5 -136.5t154.5 -49.5q142 0 213 121l256 -125q-67 -127 -191.5 -196t-294.5 -69q-233 0 -377.5 149t-144.5 388zM266 1434h340 l135 -260h-264zM397 641h416q-9 68 -66.5 115t-140.5 47q-84 0 -142 -47.5t-67 -114.5z" />
<glyph unicode="&#xe9;" horiz-adv-x="1204" d="M84 512q0 238 144.5 387.5t377.5 149.5q103 0 189.5 -27.5t147.5 -74.5t103.5 -111.5t63 -137.5t20.5 -153q0 -63 -12 -115h-723q12 -87 73.5 -136.5t154.5 -49.5q142 0 213 121l256 -125q-67 -127 -191.5 -196t-294.5 -69q-233 0 -377.5 149t-144.5 388zM397 641h416 q-9 68 -66.5 115t-140.5 47q-84 0 -142 -47.5t-67 -114.5zM473 1174l135 260h340l-211 -260h-264z" />
<glyph unicode="&#xea;" horiz-adv-x="1204" d="M84 512q0 238 144.5 387.5t377.5 149.5q103 0 189.5 -27.5t147.5 -74.5t103.5 -111.5t63 -137.5t20.5 -153q0 -63 -12 -115h-723q12 -87 73.5 -136.5t154.5 -49.5q142 0 213 121l256 -125q-67 -127 -191.5 -196t-294.5 -69q-233 0 -377.5 149t-144.5 388zM246 1174 l217 260h293l211 -260h-275l-86 124l-86 -124h-274zM397 641h416q-9 68 -66.5 115t-140.5 47q-84 0 -142 -47.5t-67 -114.5z" />
<glyph unicode="&#xeb;" horiz-adv-x="1204" d="M84 512q0 238 144.5 387.5t377.5 149.5q103 0 189.5 -27.5t147.5 -74.5t103.5 -111.5t63 -137.5t20.5 -153q0 -63 -12 -115h-723q12 -87 73.5 -136.5t154.5 -49.5q142 0 213 121l256 -125q-67 -127 -191.5 -196t-294.5 -69q-233 0 -377.5 149t-144.5 388zM309 1190v223 h236v-223h-236zM397 641h416q-9 68 -66.5 115t-140.5 47q-84 0 -142 -47.5t-67 -114.5zM668 1190v223h235v-223h-235z" />
<glyph unicode="&#xec;" horiz-adv-x="585" d="M-47 1434h340l135 -260h-264zM137 0v1024h312v-1024h-312z" />
<glyph unicode="&#xed;" horiz-adv-x="585" d="M137 0v1024h312v-1024h-312zM160 1174l135 260h340l-211 -260h-264z" />
<glyph unicode="&#xee;" horiz-adv-x="585" d="M-68 1174l218 260h292l211 -260h-274l-86 124l-86 -124h-275zM137 0v1024h312v-1024h-312z" />
<glyph unicode="&#xef;" horiz-adv-x="585" d="M-4 1190v223h235v-223h-235zM137 0v1024h312v-1024h-312zM354 1190v223h236v-223h-236z" />
<glyph unicode="&#xf0;" horiz-adv-x="1271" d="M84 506q0 144 66 263.5t182 188t256 68.5h24l-90 94l-241 -63l-52 186l154 41l-152 180h371l78 -102l201 53l51 -184l-125 -35l235 -307q148 -192 148 -383q0 -152 -73.5 -274.5t-200 -189.5t-279.5 -67q-115 0 -217 39.5t-176 109t-117 169t-43 213.5zM397 506 q0 -111 68 -184.5t172 -73.5q103 0 171.5 74t68.5 184q0 113 -68 185.5t-172 72.5q-105 0 -172.5 -72t-67.5 -186z" />
<glyph unicode="&#xf1;" horiz-adv-x="1236" d="M139 0v1024h262l37 -131q39 65 125 110.5t189 45.5q166 0 264 -103.5t98 -302.5v-643h-311v573q0 96 -42.5 147.5t-121.5 51.5q-81 0 -134.5 -71.5t-53.5 -208.5v-492h-312zM276 1157q-21 133 37 212t172 79q48 0 97.5 -24.5t89 -49t63.5 -24.5q66 0 43 98h189 q27 -133 -32 -212t-177 -79q-51 0 -100.5 24.5t-87.5 49t-62 24.5q-64 0 -41 -98h-191z" />
<glyph unicode="&#xf2;" horiz-adv-x="1271" d="M84 512q0 155 73 278.5t199.5 191t280.5 67.5t280 -67.5t199.5 -191t73.5 -278.5t-73.5 -278.5t-199.5 -191t-280 -67.5t-280.5 67.5t-199.5 191t-73 278.5zM297 1436h340l135 -260h-264zM397 512q0 -115 68 -189.5t172 -74.5q103 0 171.5 74.5t68.5 189.5q0 116 -68 190 t-172 74q-105 0 -172.5 -74t-67.5 -190z" />
<glyph unicode="&#xf3;" horiz-adv-x="1271" d="M84 512q0 155 73 278.5t199.5 191t280.5 67.5t280 -67.5t199.5 -191t73.5 -278.5t-73.5 -278.5t-199.5 -191t-280 -67.5t-280.5 67.5t-199.5 191t-73 278.5zM397 512q0 -115 68 -189.5t172 -74.5q103 0 171.5 74.5t68.5 189.5q0 116 -68 190t-172 74q-105 0 -172.5 -74 t-67.5 -190zM504 1176l135 260h340l-211 -260h-264z" />
<glyph unicode="&#xf4;" horiz-adv-x="1271" d="M84 512q0 155 73 278.5t199.5 191t280.5 67.5t280 -67.5t199.5 -191t73.5 -278.5t-73.5 -278.5t-199.5 -191t-280 -67.5t-280.5 67.5t-199.5 191t-73 278.5zM276 1176l218 260h292l211 -260h-274l-86 124l-86 -124h-275zM397 512q0 -115 68 -189.5t172 -74.5 q103 0 171.5 74.5t68.5 189.5q0 116 -68 190t-172 74q-105 0 -172.5 -74t-67.5 -190z" />
<glyph unicode="&#xf5;" horiz-adv-x="1271" d="M84 512q0 155 73 278.5t199.5 191t280.5 67.5t280 -67.5t199.5 -191t73.5 -278.5t-73.5 -278.5t-199.5 -191t-280 -67.5t-280.5 67.5t-199.5 191t-73 278.5zM291 1159q-21 133 37 212t172 79q48 0 97.5 -24.5t89 -49t63.5 -24.5q66 0 43 98h188q27 -133 -32 -212 t-177 -79q-51 0 -100.5 24.5t-87.5 49t-62 24.5q-64 0 -41 -98h-190zM397 512q0 -115 68 -189.5t172 -74.5q103 0 171.5 74.5t68.5 189.5q0 116 -68 190t-172 74q-105 0 -172.5 -74t-67.5 -190z" />
<glyph unicode="&#xf6;" horiz-adv-x="1271" d="M84 512q0 155 73 278.5t199.5 191t280.5 67.5t280 -67.5t199.5 -191t73.5 -278.5t-73.5 -278.5t-199.5 -191t-280 -67.5t-280.5 67.5t-199.5 191t-73 278.5zM340 1192v223h235v-223h-235zM397 512q0 -115 68 -189.5t172 -74.5q103 0 171.5 74.5t68.5 189.5q0 116 -68 190 t-172 74q-105 0 -172.5 -74t-67.5 -190zM698 1192v223h236v-223h-236z" />
<glyph unicode="&#xf7;" d="M133 578v278h924v-278h-924zM440 152v282h308v-282h-308zM440 999v283h308v-283h-308z" />
<glyph unicode="&#xf8;" horiz-adv-x="1271" d="M84 512q0 155 73 278.5t199.5 191t280.5 67.5q157 0 289 -74l73 86l138 -111l-74 -86q127 -143 127 -352q0 -155 -73.5 -278.5t-199.5 -191t-280 -67.5q-161 0 -287 72l-74 -84l-137 111l74 84q-129 145 -129 354zM397 512q0 -60 23 -117l313 361q-41 20 -96 20 q-105 0 -172.5 -74t-67.5 -190zM541 266q43 -18 96 -18q103 0 171.5 74.5t68.5 189.5q0 57 -21 115z" />
<glyph unicode="&#xf9;" horiz-adv-x="1249" d="M127 389v635h311v-580q0 -94 44.5 -143t123.5 -49q84 0 138.5 70t54.5 202v500h311v-1024h-262l-35 131q-41 -65 -128 -110.5t-191 -45.5q-168 0 -267.5 105.5t-99.5 308.5zM270 1434h340l135 -260h-264z" />
<glyph unicode="&#xfa;" horiz-adv-x="1249" d="M127 389v635h311v-580q0 -94 44.5 -143t123.5 -49q84 0 138.5 70t54.5 202v500h311v-1024h-262l-35 131q-41 -65 -128 -110.5t-191 -45.5q-168 0 -267.5 105.5t-99.5 308.5zM477 1174l135 260h340l-211 -260h-264z" />
<glyph unicode="&#xfb;" horiz-adv-x="1249" d="M127 389v635h311v-580q0 -94 44.5 -143t123.5 -49q84 0 138.5 70t54.5 202v500h311v-1024h-262l-35 131q-41 -65 -128 -110.5t-191 -45.5q-168 0 -267.5 105.5t-99.5 308.5zM250 1174l217 260h293l211 -260h-275l-86 124l-86 -124h-274z" />
<glyph unicode="&#xfc;" horiz-adv-x="1249" d="M127 389v635h311v-580q0 -94 44.5 -143t123.5 -49q84 0 138.5 70t54.5 202v500h311v-1024h-262l-35 131q-41 -65 -128 -110.5t-191 -45.5q-168 0 -267.5 105.5t-99.5 308.5zM313 1190v223h236v-223h-236zM672 1190v223h235v-223h-235z" />
<glyph unicode="&#xfd;" horiz-adv-x="1093" d="M0 1024h332l227 -633l209 633h324l-541 -1434h-315l170 463zM414 1174l135 260h340l-211 -260h-264z" />
<glyph unicode="&#xfe;" horiz-adv-x="1302" d="M109 -410v1874h309v-546q47 56 128 93.5t183 37.5q100 0 188 -37t153.5 -105t103.5 -170t38 -225q0 -129 -43 -233.5t-114.5 -169.5t-159.5 -99.5t-182 -34.5q-99 0 -176 33.5t-119 83.5v-502h-309zM408 512q0 -118 69.5 -191t175.5 -73q105 0 176.5 73t71.5 191 q0 119 -68.5 191.5t-175.5 72.5q-106 0 -177.5 -73t-71.5 -191z" />
<glyph unicode="&#xff;" horiz-adv-x="1093" d="M0 1024h332l227 -633l209 633h324l-541 -1434h-315l170 463zM250 1190v223h235v-223h-235zM608 1190v223h236v-223h-236z" />
<glyph unicode="&#x152;" horiz-adv-x="2056" d="M92 717q0 155 50 286t143 227t234.5 150t316.5 54h1106v-293h-627v-250h586v-295h-586v-303h627v-293h-1106q-170 0 -310.5 54t-235 149t-146.5 227t-52 287zM430 717q0 -207 108 -315.5t289 -108.5h152v848h-152q-181 0 -289 -108.5t-108 -315.5z" />
<glyph unicode="&#x153;" horiz-adv-x="2015" d="M80 512q0 155 73.5 278.5t199.5 191t280 67.5q126 0 231.5 -49.5t167.5 -135.5q58 81 163.5 133t221.5 52q128 0 230.5 -41.5t165.5 -112.5t96 -160.5t33 -189.5q0 -58 -13 -115h-723q12 -87 74.5 -136.5t155.5 -49.5q140 0 211 121l256 -125q-67 -128 -191 -196.5 t-295 -68.5q-132 0 -230.5 52t-154.5 133q-58 -80 -165.5 -132.5t-233.5 -52.5q-154 0 -280 67.5t-199.5 191t-73.5 278.5zM393 512q0 -115 68.5 -189.5t171.5 -74.5t171 74.5t68 189.5q0 116 -68 190t-171 74q-104 0 -172 -74t-68 -190zM1210 641h414q-8 67 -65.5 114.5 t-139.5 47.5q-85 0 -143 -47.5t-66 -114.5z" />
<glyph unicode="&#x178;" horiz-adv-x="1222" d="M6 1434h352l252 -519l254 519h353l-439 -842v-592h-336v592zM313 1581v223h236v-223h-236zM672 1581v223h235v-223h-235z" />
<glyph unicode="&#x2c6;" horiz-adv-x="1048" d="M164 1174l217 260h293l211 -260h-275l-86 124l-86 -124h-274z" />
<glyph unicode="&#x2dc;" horiz-adv-x="1048" d="M178 1157q-21 133 37 212t172 79q48 0 97.5 -24.5t89 -49t63.5 -24.5q66 0 43 98h188q27 -133 -32 -212t-177 -79q-51 0 -100 24.5t-87 49t-62 24.5q-64 0 -41 -98h-191z" />
<glyph unicode="&#x2000;" horiz-adv-x="978" />
<glyph unicode="&#x2001;" horiz-adv-x="1956" />
<glyph unicode="&#x2002;" horiz-adv-x="978" />
<glyph unicode="&#x2003;" horiz-adv-x="1956" />
<glyph unicode="&#x2004;" horiz-adv-x="652" />
<glyph unicode="&#x2005;" horiz-adv-x="489" />
<glyph unicode="&#x2006;" horiz-adv-x="326" />
<glyph unicode="&#x2007;" horiz-adv-x="326" />
<glyph unicode="&#x2008;" horiz-adv-x="244" />
<glyph unicode="&#x2009;" horiz-adv-x="391" />
<glyph unicode="&#x200a;" horiz-adv-x="108" />
<glyph unicode="&#x2010;" horiz-adv-x="921" d="M135 381v278h651v-278h-651z" />
<glyph unicode="&#x2011;" horiz-adv-x="921" d="M135 381v278h651v-278h-651z" />
<glyph unicode="&#x2012;" horiz-adv-x="921" d="M135 381v278h651v-278h-651z" />
<glyph unicode="&#x2013;" horiz-adv-x="1290" d="M135 381v278h1020v-278h-1020z" />
<glyph unicode="&#x2014;" horiz-adv-x="1880" d="M135 381v278h1610v-278h-1610z" />
<glyph unicode="&#x2018;" horiz-adv-x="612" d="M86 903l205 531h235l-108 -531h-332z" />
<glyph unicode="&#x2019;" horiz-adv-x="591" d="M76 903l108 531h332l-205 -531h-235z" />
<glyph unicode="&#x201a;" horiz-adv-x="602" d="M80 -279l108 531h334l-205 -531h-237z" />
<glyph unicode="&#x201c;" horiz-adv-x="1071" d="M86 903l205 531h235l-108 -531h-332zM545 903l205 531h237l-108 -531h-334z" />
<glyph unicode="&#x201d;" horiz-adv-x="1050" d="M76 903l108 531h332l-205 -531h-235zM537 903l108 531h332l-205 -531h-235z" />
<glyph unicode="&#x201e;" horiz-adv-x="1060" d="M80 -279l108 531h334l-205 -531h-237zM541 -279l108 531h332l-205 -531h-235z" />
<glyph unicode="&#x2022;" horiz-adv-x="665" d="M86 676q0 100 72.5 172t173.5 72t175.5 -72t74.5 -172q0 -99 -74 -170.5t-176 -71.5q-101 0 -173.5 71t-72.5 171z" />
<glyph unicode="&#x2026;" horiz-adv-x="1902" d="M154 0v285h313v-285h-313zM795 0v285h313v-285h-313zM1436 0v285h313v-285h-313z" />
<glyph unicode="&#x202f;" horiz-adv-x="391" />
<glyph unicode="&#x2039;" horiz-adv-x="620" d="M55 532l203 373h309l-205 -368l205 -377h-309z" />
<glyph unicode="&#x203a;" horiz-adv-x="600" d="M45 160l205 368l-205 377h309l203 -373l-203 -372h-309z" />
<glyph unicode="&#x205f;" horiz-adv-x="489" />
<glyph unicode="&#x20ac;" d="M4 449v223h129v90h-129v223h152q52 227 192 350t346 123q179 0 303.5 -90.5t180.5 -257.5l-293 -96q-51 164 -191 164q-73 0 -126.5 -48.5t-82.5 -144.5h320v-223h-348v-90h348v-223h-320q29 -96 82.5 -144.5t126.5 -48.5q74 0 125.5 49.5t75.5 134.5l299 -92 q-60 -175 -188.5 -274t-311.5 -99q-205 0 -344 124t-192 350h-154z" />
<glyph unicode="&#x2122;" horiz-adv-x="1474" d="M98 1266v168h486v-168h-154v-406h-190v406h-142zM666 860v574h252l92 -318l102 318h242v-574h-166v297l-96 -297h-154l-107 297v-297h-165z" />
<glyph unicode="&#x25fc;" horiz-adv-x="1024" d="M0 0v1024h1024v-1024h-1024z" />
</font>
</defs>
</svg>
