<?xml version="1.0" standalone="no"?>
<!DOCTYPE svg PUBLIC "-//W3C//DTD SVG 1.1//EN" "http://www.w3.org/Graphics/SVG/1.1/DTD/svg11.dtd" >
<svg xmlns="http://www.w3.org/2000/svg" xmlns:xlink="http://www.w3.org/1999/xlink" version="1.1">
<metadata></metadata>
<defs>
<font id="wigrumblack" horiz-adv-x="1228" >
<font-face units-per-em="2048" ascent="1536" descent="-512" />
<missing-glyph horiz-adv-x="507" />
<glyph unicode="&#xfb01;" horiz-adv-x="1445" d="M41 762v262h133v61q0 174 114.5 273.5t301.5 99.5q100 0 188 -24v-297q-45 18 -100 18q-63 0 -103 -31t-40 -80v-20h223v-262h-223v-762h-361v762h-133zM963 0v1024h360v-1024h-360zM963 1126v338h360v-338h-360z" />
<glyph unicode="&#xfb02;" horiz-adv-x="1445" d="M41 762v262h133v61q0 174 114.5 273.5t301.5 99.5q100 0 188 -24v-297q-45 18 -100 18q-63 0 -103 -31t-40 -80v-20h223v-262h-223v-762h-361v762h-133zM963 0v1464h360v-1464h-360z" />
<glyph unicode="&#xfb03;" horiz-adv-x="2285" d="M41 762v262h133v61q0 174 114.5 273.5t301.5 99.5q100 0 188 -24v-297q-45 18 -100 18q-63 0 -103 -31t-40 -80v-20h479v61q0 174 114.5 273.5t301.5 99.5q100 0 188 -24v-297q-45 18 -100 18q-63 0 -103.5 -31t-40.5 -80v-20h223v-262h-223v-762h-360v762h-479v-762 h-361v762h-133zM1802 0v1024h361v-1024h-361zM1802 1126v338h361v-338h-361z" />
<glyph unicode="&#xfb04;" horiz-adv-x="2285" d="M41 762v262h133v61q0 174 114.5 273.5t301.5 99.5q100 0 188 -24v-297q-45 18 -100 18q-63 0 -103 -31t-40 -80v-20h479v61q0 174 114.5 273.5t301.5 99.5q100 0 188 -24v-297q-45 18 -100 18q-63 0 -103.5 -31t-40.5 -80v-20h223v-262h-223v-762h-360v762h-479v-762 h-361v762h-133zM1802 0v1464h361v-1464h-361z" />
<glyph horiz-adv-x="0" />
<glyph horiz-adv-x="682" />
<glyph unicode=" "  horiz-adv-x="507" />
<glyph unicode="&#x09;" horiz-adv-x="507" />
<glyph unicode="&#xa0;" horiz-adv-x="507" />
<glyph unicode="!" horiz-adv-x="620" d="M127 0v315h367v-315h-367zM139 451v983h342v-983h-342z" />
<glyph unicode="&#x22;" horiz-adv-x="1099" d="M133 883v551h340v-551h-340zM627 883v551h340v-551h-340z" />
<glyph unicode="#" d="M0 348v307h215l27 123h-160v307h221l72 349h325l-71 -349h121l71 349h326l-72 -349h154v-307h-215l-27 -123h160v-307h-221l-72 -348h-326l72 348h-121l-71 -348h-326l72 348h-154zM541 655h121l26 123h-121z" />
<glyph unicode="$" d="M61 369l314 133q30 -94 98.5 -147.5t153.5 -53.5q71 0 107 29t36 80q0 44 -30.5 78t-114.5 75l-211 105q-50 25 -89 54.5t-79 77t-62 118.5t-22 159q0 128 76.5 221.5t210.5 133.5v227h360v-221q184 -53 248 -226l-301 -155q-39 86 -117 86q-36 0 -59 -17t-23 -49 q0 -29 18 -50.5t60 -43.5l215 -113q162 -85 234.5 -189.5t72.5 -264.5q0 -140 -93.5 -255t-254.5 -161v-225h-360v219q-279 67 -388 375z" />
<glyph unicode="%" horiz-adv-x="2048" d="M33 1024q0 196 94 310t268 114q172 0 267.5 -114.5t95.5 -309.5t-95.5 -309.5t-267.5 -114.5q-174 0 -268 114t-94 310zM287 1024q0 -213 108 -213q109 0 109 213t-109 213q-108 0 -108 -213zM463 14l913 1530l207 -125l-913 -1528zM1208 410q0 196 94.5 310t268.5 114 q172 0 267 -114.5t95 -309.5t-95 -309.5t-267 -114.5q-174 0 -268.5 114t-94.5 310zM1462 410q0 -213 109 -213q108 0 108 213t-108 213q-109 0 -109 -213z" />
<glyph unicode="&#x26;" horiz-adv-x="1495" d="M61 436q0 279 263 422q-57 41 -99.5 107.5t-42.5 150.5q0 141 121.5 241.5t300.5 100.5q180 0 302 -99.5t122 -236.5q0 -132 -58 -219t-171 -145l149 -164q2 53 -8 139h336q42 -250 -55 -436l274 -297h-416l-80 84q-94 -54 -178.5 -81.5t-195.5 -27.5q-252 0 -408 126 t-156 335zM422 467q0 -82 58 -132t145 -50q90 0 153 32l-286 299q-70 -67 -70 -149zM492 1094q0 -43 32.5 -75t79.5 -32q49 0 81 31.5t32 75.5q0 43 -33 75.5t-80 32.5t-79.5 -32.5t-32.5 -75.5z" />
<glyph unicode="'" horiz-adv-x="606" d="M133 883v551h340v-551h-340z" />
<glyph unicode="(" horiz-adv-x="778" d="M82 594q0 268 107 544.5t305 489.5l284 -194q-165 -191 -249.5 -408t-84.5 -432q0 -213 84.5 -429.5t247.5 -410.5l-287 -194q-194 214 -300.5 490.5t-106.5 543.5z" />
<glyph unicode=")" horiz-adv-x="778" d="M0 -246q165 191 249.5 408t84.5 432q0 213 -84.5 429.5t-247.5 410.5l287 194q194 -214 300.5 -490.5t106.5 -543.5q0 -268 -106.5 -544.5t-304.5 -489.5z" />
<glyph unicode="*" horiz-adv-x="958" d="M88 956l219 93l-219 92l117 200l188 -143l-31 236h234l-31 -238l189 145l116 -200l-221 -92l221 -93l-116 -200l-189 143l31 -235h-234l31 235l-188 -143z" />
<glyph unicode="+" d="M133 557v320h322v321h319v-321h322v-320h-322v-321h-319v321h-322z" />
<glyph unicode="," horiz-adv-x="559" d="M25 -266l118 585h369l-238 -585h-249z" />
<glyph unicode="-" horiz-adv-x="921" d="M123 367v307h676v-307h-676z" />
<glyph unicode="." horiz-adv-x="620" d="M133 0v315h354v-315h-354z" />
<glyph unicode="/" horiz-adv-x="1200" d="M-20 -72l849 1577h392l-852 -1577h-389z" />
<glyph unicode="0" d="M31 717q0 351 152.5 546t430.5 195t431 -195t153 -546q0 -350 -153.5 -546t-430.5 -196t-430 196t-153 546zM410 717q0 -410 204 -410q205 0 205 410q0 409 -205 409q-204 0 -204 -409z" />
<glyph unicode="1" d="M184 0v307h246v737l-246 -122v344l287 168h338v-1127h246v-307h-871z" />
<glyph unicode="2" d="M96 0v311l416 396q110 103 137 134q62 71 62 128q0 58 -38 96.5t-95 38.5q-58 0 -94 -48.5t-48 -113.5l-332 98q13 66 37 124t65.5 113t96 94.5t133.5 63t174 23.5q212 0 346 -124.5t134 -309.5q0 -140 -48 -237.5t-155 -204.5l-264 -267h497v-315h-1024z" />
<glyph unicode="3" d="M61 344l345 121q14 -61 62 -105.5t114 -44.5q81 0 127.5 45t46.5 115q0 57 -41.5 105.5t-122.5 58.5l-207 25v235l229 219h-460v316h909v-295l-275 -244q151 -41 249 -149.5t98 -270.5q0 -226 -150 -363t-393 -137q-116 0 -209 28t-156 79.5t-104 116t-62 145.5z" />
<glyph unicode="4" d="M20 242v288l615 904h348v-887h195v-305h-195v-242h-379v242h-584zM340 547h264v371z" />
<glyph unicode="5" d="M82 336l330 110q48 -131 192 -131q71 0 122.5 48t51.5 122q0 76 -51 123t-123 47q-128 0 -180 -94l-313 53l90 820h837v-336h-551l-34 -199q37 31 104 51.5t135 20.5q211 0 338 -139.5t127 -358.5q0 -212 -158.5 -355t-394.5 -143q-217 0 -351 98t-171 263z" />
<glyph unicode="6" d="M98 475q0 88 28.5 174t63.5 144l379 641h435l-330 -469q14 2 43 2q185 0 309.5 -135t124.5 -340q0 -223 -150.5 -370t-375.5 -147q-104 0 -200 36.5t-168.5 101t-115.5 159t-43 203.5zM477 485q0 -80 41 -135t107 -55t106.5 55t40.5 135t-40.5 134.5t-106.5 54.5 t-107 -54.5t-41 -134.5z" />
<glyph unicode="7" d="M193 0l534 1118h-528v316h923v-295l-524 -1139h-405z" />
<glyph unicode="8" d="M84 455q0 119 59.5 213t137.5 133q-44 28 -81.5 101t-37.5 147q0 184 129.5 296.5t320.5 112.5q94 0 175 -25t143 -74t97.5 -127t35.5 -177q0 -69 -33.5 -142.5t-85.5 -109.5q86 -50 142.5 -138t56.5 -210q0 -97 -39.5 -185t-108.5 -153t-168.5 -103.5t-214.5 -38.5 q-233 0 -380.5 134t-147.5 346zM461 455q0 -70 41 -117t110 -47q67 0 108.5 47.5t41.5 116.5t-41.5 116t-108.5 47q-69 0 -110 -46.5t-41 -116.5zM516 1049q0 -44 27 -74.5t69 -30.5t69.5 30.5t27.5 74.5q0 43 -28 73.5t-69 30.5q-42 0 -69 -30t-27 -74z" />
<glyph unicode="9" d="M88 952q0 145 73.5 262.5t193 180.5t259.5 63q104 0 200 -37.5t168.5 -103t115.5 -161t43 -204.5q0 -162 -92 -311l-390 -641h-434l318 481h-29q-188 0 -307 136t-119 335zM467 948q0 -80 40.5 -134t106.5 -54t107 54t41 134t-41 135.5t-107 55.5t-106.5 -55.5 t-40.5 -135.5z" />
<glyph unicode=":" horiz-adv-x="620" d="M133 0v315h354v-315h-354zM133 709v315h354v-315h-354z" />
<glyph unicode=";" horiz-adv-x="559" d="M25 -266l118 585h369l-238 -585h-249zM139 709v315h355v-315h-355z" />
<glyph unicode="&#x3c;" d="M133 543v348l963 399v-354l-604 -213l604 -215v-365z" />
<glyph unicode="=" d="M133 299v319h963v-319h-963zM133 815v320h963v-320h-963z" />
<glyph unicode="&#x3e;" d="M133 143v355l604 213l-604 215v364l963 -399v-348z" />
<glyph unicode="?" horiz-adv-x="1101" d="M41 1079q42 175 176.5 277t314.5 102q224 0 366 -123t142 -321q0 -154 -86.5 -264t-246.5 -154v-145h-334v391l170 28q137 22 137 123q0 54 -43 90.5t-107 36.5q-59 0 -101 -36t-60 -97zM356 0v315h367v-315h-367z" />
<glyph unicode="@" horiz-adv-x="1859" d="M82 582q2 175 67 327t178 262.5t276.5 174t354.5 63.5q231 0 418 -92.5t294.5 -261t107.5 -381.5q0 -228 -109 -369t-266 -141q-75 0 -134.5 36t-90.5 97q-111 -133 -279 -133q-185 0 -308.5 117.5t-123.5 302.5q0 197 119.5 308.5t306.5 111.5q71 0 130 -28.5t97 -68.5 l23 78h209v-446q0 -54 20 -86.5t55 -32.5q42 0 74.5 70t32.5 186q0 104 -43.5 198t-118 163.5t-182 111t-229.5 41.5q-174 0 -320 -83.5t-229 -223t-84 -301.5q-1 -123 44 -233t125.5 -191t197.5 -128.5t253 -47.5q123 0 214 27.5t196 82.5l115 -184q-237 -148 -525 -148 q-198 0 -363 62.5t-275.5 172.5t-170 261t-57.5 326zM754 584q0 -67 45 -115.5t112 -48.5q66 0 111 48.5t45 115.5t-45 115.5t-111 48.5q-67 0 -112 -48.5t-45 -115.5z" />
<glyph unicode="A" horiz-adv-x="1417" d="M0 0l535 1434h358l524 -1434h-383l-86 256h-479l-88 -256h-381zM582 592h252l-125 371z" />
<glyph unicode="B" horiz-adv-x="1316" d="M133 0v1434h537q186 0 319 -105t133 -262q0 -88 -35.5 -157t-85.5 -105q48 -14 93.5 -44t84.5 -75t63 -110t24 -140q0 -194 -130.5 -315t-336.5 -121h-666zM494 336h243q55 0 94 39t39 94t-39 94t-94 39h-243v-266zM494 911h141q46 0 69 26t23 69q0 42 -23.5 67t-68.5 25 h-141v-187z" />
<glyph unicode="C" horiz-adv-x="1480" d="M82 717q0 159 51.5 295t146 235t235 155t310.5 56q215 0 370.5 -89t238.5 -253l-330 -198q-48 99 -116 149.5t-181 50.5q-64 0 -123 -27t-105.5 -77t-74 -127t-27.5 -170q0 -99 30.5 -178.5t81 -127t111.5 -72t127 -24.5q97 0 175.5 50.5t121.5 136.5l340 -150 q-81 -174 -251.5 -275.5t-426.5 -101.5q-205 0 -366.5 98t-249.5 267t-88 377z" />
<glyph unicode="D" horiz-adv-x="1480" d="M133 0v1434h559q136 0 251 -35.5t198.5 -100t142 -153.5t87 -197.5t28.5 -230.5q0 -152 -47.5 -282.5t-135.5 -227t-223 -152t-301 -55.5h-559zM528 336h164q141 0 226.5 94t85.5 287q0 192 -86.5 286.5t-225.5 94.5h-164v-762z" />
<glyph unicode="E" horiz-adv-x="1292" d="M133 0v1434h1049v-336h-654v-187h613v-336h-613v-239h654v-336h-1049z" />
<glyph unicode="F" horiz-adv-x="1253" d="M133 0v1434h1028v-336h-633v-207h592v-336h-592v-555h-395z" />
<glyph unicode="G" horiz-adv-x="1587" d="M82 719q0 159 51.5 294.5t146 234t235 154.5t310.5 56q214 0 371.5 -86t235.5 -246l-347 -174q-98 166 -276 166q-65 0 -124.5 -27t-106 -76t-74 -126t-27.5 -170q0 -81 20.5 -149t54.5 -114t79.5 -78.5t94.5 -47.5t101 -15q107 0 185.5 60t87.5 139h-299v315h684v-829 h-268l-60 121q-65 -63 -165 -104.5t-206 -41.5q-155 0 -287 57.5t-223 157t-142.5 236.5t-51.5 293z" />
<glyph unicode="H" horiz-adv-x="1488" d="M133 0v1434h395v-523h433v523h395v-1434h-395v575h-433v-575h-395z" />
<glyph unicode="I" horiz-adv-x="661" d="M133 0v1434h395v-1434h-395z" />
<glyph unicode="J" horiz-adv-x="1150" d="M0 283l311 163q25 -57 68 -96t102 -39q78 0 120 46t42 130v947h395v-973q0 -228 -143.5 -357t-413.5 -129q-99 0 -180.5 25t-139 69.5t-96.5 97t-65 116.5z" />
<glyph unicode="K" horiz-adv-x="1433" d="M133 0v1434h395v-486l381 486h484l-553 -676l594 -758h-502l-404 532v-532h-395z" />
<glyph unicode="L" horiz-adv-x="1198" d="M133 0v1434h395v-1098h629v-336h-1024z" />
<glyph unicode="M" horiz-adv-x="1810" d="M133 0v1434h518l256 -922l301 922h478v-1434h-365v768l-246 -768h-334l-243 768v-768h-365z" />
<glyph unicode="N" horiz-adv-x="1501" d="M133 0v1434h436l414 -799v799h385v-1434h-436l-414 768v-768h-385z" />
<glyph unicode="O" horiz-adv-x="1654" d="M82 717q0 159 51.5 295t146 235t235 155t310.5 56q227 0 398 -97t260.5 -264.5t89.5 -379.5q0 -209 -91.5 -377t-263 -266.5t-393.5 -98.5q-166 0 -306.5 57.5t-235.5 157t-148 235.5t-53 292zM477 717q0 -99 30.5 -179t81 -128t111.5 -73.5t127 -25.5t127 25.5t112 73.5 t81.5 128t30.5 179t-30.5 179t-81.5 128t-112 73t-127 25t-127 -25t-111.5 -73t-81 -128t-30.5 -179z" />
<glyph unicode="P" horiz-adv-x="1290" d="M133 0v1434h551q259 0 391.5 -122.5t132.5 -322.5q0 -218 -148 -351.5t-396 -133.5h-136v-504h-395zM528 840h156q54 0 91.5 37.5t37.5 91.5t-37.5 91.5t-91.5 37.5h-156v-258z" />
<glyph unicode="Q" horiz-adv-x="1654" d="M72 717q0 159 51.5 295t146 235t235 155t310.5 56q227 0 398 -97t260.5 -264.5t89.5 -379.5q0 -275 -160 -477l158 -177l-242 -219l-174 199q-152 -68 -330 -68q-166 0 -306.5 57.5t-235.5 157t-148 235.5t-53 292zM467 717q0 -99 30.5 -179t81 -128t111.5 -73.5 t127 -25.5q31 0 84 11l-113 129l244 208l107 -118q28 76 28 176q0 99 -30.5 179t-81 128t-111.5 73t-127 25t-127 -25t-111.5 -73t-81 -128t-30.5 -179z" />
<glyph unicode="R" horiz-adv-x="1351" d="M133 0v1434h520q264 0 399.5 -109.5t135.5 -304.5q0 -138 -60.5 -224.5t-189.5 -150.5l373 -645h-443l-313 565h-27v-565h-395zM528 893h136q59 0 94 27t35 79t-35 79.5t-94 27.5h-136v-213z" />
<glyph unicode="S" horiz-adv-x="1177" d="M41 369l313 133q30 -94 98.5 -147.5t153.5 -53.5q72 0 108 29t36 80q0 44 -31 77.5t-115 75.5l-211 105q-50 25 -89 54.5t-79 77t-62 118.5t-22 159q0 171 131 276t346 105q329 0 418 -246l-301 -155q-39 86 -117 86q-36 0 -58.5 -17t-22.5 -49q0 -29 18 -50.5t59 -43.5 l215 -113q162 -85 235 -189.5t73 -264.5q0 -86 -38 -165.5t-106 -141t-170.5 -98t-222.5 -36.5q-115 0 -208 28t-159.5 82t-113 123.5t-78.5 160.5z" />
<glyph unicode="T" horiz-adv-x="1144" d="M20 1098v336h1104v-336h-354v-1098h-395v1098h-355z" />
<glyph unicode="U" horiz-adv-x="1495" d="M113 598v836h395v-809q0 -314 240 -314q128 0 183.5 82t55.5 232v809h395v-836q0 -286 -170.5 -454.5t-463.5 -168.5t-464 168.5t-171 454.5z" />
<glyph unicode="V" horiz-adv-x="1376" d="M20 1434h412l254 -906l256 906h414l-482 -1434h-376z" />
<glyph unicode="W" horiz-adv-x="2004" d="M20 1434h392l350 -945l86 261l-262 684h370l78 -252l82 252h330l-258 -637l92 -289l344 926h361l-560 -1434h-297l-120 346l-125 -346h-314z" />
<glyph unicode="X" horiz-adv-x="1357" d="M20 0l453 743l-418 691h428l203 -363l209 363h408l-414 -682l448 -752h-413l-244 424l-246 -424h-414z" />
<glyph unicode="Y" horiz-adv-x="1286" d="M20 1434h408l215 -494l215 494h408l-426 -867v-567h-396v567z" />
<glyph unicode="Z" horiz-adv-x="1267" d="M86 0v315l598 783h-557v336h1034v-316l-598 -782h619v-336h-1096z" />
<glyph unicode="[" horiz-adv-x="792" d="M133 -410v2044h619v-286h-271v-1471h271v-287h-619z" />
<glyph unicode="\" horiz-adv-x="1200" d="M-20 1505h391l850 -1577h-390z" />
<glyph unicode="]" horiz-adv-x="792" d="M41 -123h270v1471h-270v286h618v-2044h-618v287z" />
<glyph unicode="^" d="M41 471l399 963h348l400 -963h-365l-215 604l-213 -604h-354z" />
<glyph unicode="_" horiz-adv-x="1290" d="M123 -45h1044v-324h-1044v324z" />
<glyph unicode="`" horiz-adv-x="1048" d="M272 1434h373l131 -260h-289z" />
<glyph unicode="a" horiz-adv-x="1333" d="M82 512q0 108 30 199t79 152.5t113 104t130 62t131 19.5q93 0 163.5 -28t113.5 -69l30 72h338v-1024h-317l-51 82q-20 -19 -38 -32.5t-54.5 -33t-88.5 -30.5t-116 -11q-89 0 -172 37t-148 103.5t-104 170t-39 226.5zM442 512q0 -107 58.5 -168t146.5 -61t146.5 61 t58.5 168t-58.5 168t-146.5 61t-146.5 -61t-58.5 -168z" />
<glyph unicode="b" horiz-adv-x="1341" d="M123 0v1464h360v-532q117 117 305 117q66 0 130 -17.5t127 -58.5t110 -101t76 -153t29 -207q0 -130 -43.5 -235t-114.5 -169.5t-157 -98.5t-177 -34q-110 0 -187.5 35.5t-117.5 91.5l-41 -102h-299zM483 512q0 -104 59.5 -164.5t147.5 -60.5q90 0 149.5 60.5t59.5 164.5 q0 105 -59.5 165t-149.5 60q-89 0 -148 -60t-59 -165z" />
<glyph unicode="c" horiz-adv-x="1185" d="M82 512q0 161 76 284.5t203 188t282 64.5q165 0 290.5 -80t190.5 -221l-329 -136q-19 59 -61.5 92t-100.5 33q-84 0 -137.5 -62t-53.5 -163q0 -98 58 -161.5t143 -63.5q57 0 101.5 34.5t60.5 81.5l332 -131q-56 -130 -193 -213.5t-311 -83.5q-237 0 -394 147.5 t-157 389.5z" />
<glyph unicode="d" horiz-adv-x="1341" d="M82 512q0 114 31 207t81 153t115.5 101t131.5 58.5t132 17.5q194 0 285 -107v522h361v-1464h-299l-41 123q-41 -60 -129 -104t-197 -44q-72 0 -139.5 21t-128 65t-105.5 106t-71.5 151t-26.5 194zM442 512q0 -104 59.5 -164.5t149.5 -60.5q88 0 147.5 60.5t59.5 164.5 q0 105 -59 165t-148 60q-90 0 -149.5 -60t-59.5 -165z" />
<glyph unicode="e" horiz-adv-x="1224" d="M82 512q0 246 146 391.5t386 145.5q110 0 201.5 -29t153 -77.5t104 -113t61.5 -134t19 -142.5q0 -63 -16 -129h-693q17 -68 66.5 -105.5t120.5 -37.5q128 0 184 94l295 -150q-143 -250 -494 -250q-235 0 -384.5 146.5t-149.5 390.5zM451 655h331q-11 51 -57.5 89 t-110.5 38q-66 0 -109.5 -38t-53.5 -89z" />
<glyph unicode="f" horiz-adv-x="839" d="M41 762v262h133v61q0 174 114.5 273.5t301.5 99.5q100 0 188 -24v-297q-45 18 -100 18q-63 0 -103 -31t-40 -80v-20h223v-262h-223v-762h-361v762h-133z" />
<glyph unicode="g" horiz-adv-x="1239" d="M72 39q0 206 178 344q-109 90 -109 252q0 85 30 159t87 131.5t147 90.5t203 33h549v-267l-129 -26q51 -63 51 -162q0 -59 -27 -120t-75 -91q80 -44 130 -140t50 -204q0 -215 -154 -344t-391 -129q-236 0 -388 128.5t-152 344.5zM432 39q0 -80 52.5 -126t127.5 -46 q74 0 128.5 46.5t54.5 125.5q0 82 -54.5 128t-128.5 46q-75 0 -127.5 -46t-52.5 -128zM475 618q0 -63 38 -107t95 -44q60 0 94.5 43t34.5 108q0 64 -35.5 110t-93.5 46q-55 0 -94 -47t-39 -109z" />
<glyph unicode="h" horiz-adv-x="1230" d="M123 0v1464h360v-510q102 95 303 95q68 0 127.5 -22.5t107.5 -67t75.5 -119.5t27.5 -172v-668h-360v592q0 65 -37 102t-98 37q-60 0 -103 -48t-43 -140v-543h-360z" />
<glyph unicode="i" horiz-adv-x="606" d="M123 0v1024h360v-1024h-360zM123 1126v338h360v-338h-360z" />
<glyph unicode="j" horiz-adv-x="608" d="M123 -434v1458h362v-1397zM123 1126v338h362v-338h-362z" />
<glyph unicode="k" horiz-adv-x="1220" d="M123 0v1464h360v-753l256 313h430l-421 -467l442 -557h-455l-252 348v-348h-360z" />
<glyph unicode="l" horiz-adv-x="606" d="M123 0v1464h360v-1464h-360z" />
<glyph unicode="m" horiz-adv-x="1830" d="M123 0v1024h299l41 -123q42 62 119.5 105t183.5 43q81 0 155 -39.5t119 -108.5q39 61 122 104.5t204 43.5q68 0 130.5 -22.5t114 -67t82.5 -119.5t31 -172v-668h-360v592q0 139 -115 139q-61 0 -103 -43.5t-42 -134.5v-553h-361v592q0 139 -114 139q-60 0 -103 -48 t-43 -140v-543h-360z" />
<glyph unicode="n" horiz-adv-x="1230" d="M123 0v1024h299l41 -123q41 60 128 104t195 44q68 0 127.5 -22.5t107.5 -67t75.5 -119.5t27.5 -172v-668h-360v592q0 65 -37 102t-98 37q-60 0 -103 -48t-43 -140v-543h-360z" />
<glyph unicode="o" horiz-adv-x="1286" d="M82 512q0 161 76 284.5t203 188t282 64.5t282 -64.5t203 -188t76 -284.5t-76 -284.5t-203 -188t-282 -64.5t-282 64.5t-203 188t-76 284.5zM442 512q0 -98 58 -161.5t143 -63.5t143 63.5t58 161.5q0 99 -58 162t-143 63t-143 -63t-58 -162z" />
<glyph unicode="p" horiz-adv-x="1341" d="M123 -410v1434h299l41 -123q41 60 128.5 104t196.5 44q72 0 140 -21t128.5 -65t105.5 -106t71.5 -151t26.5 -194q0 -114 -31 -207t-81 -153t-116 -101t-132 -58.5t-132 -17.5q-194 0 -285 107v-492h-360zM483 512q0 -105 59 -165t148 -60q90 0 149.5 60t59.5 165 q0 104 -59.5 164.5t-149.5 60.5q-88 0 -147.5 -60.5t-59.5 -164.5z" />
<glyph unicode="q" horiz-adv-x="1341" d="M82 512q0 105 28.5 194t76.5 151t111.5 106t133 65t141.5 21q110 0 188 -35.5t118 -91.5l41 102h299v-1434h-361v502q-117 -117 -305 -117q-66 0 -130 17.5t-126.5 58.5t-109.5 101t-76 153t-29 207zM442 512q0 -105 59.5 -165t149.5 -60q89 0 148 60t59 165 q0 104 -59.5 164.5t-147.5 60.5q-90 0 -149.5 -60.5t-59.5 -164.5z" />
<glyph unicode="r" horiz-adv-x="929" d="M123 0v1024h301l27 -133q38 79 114.5 118.5t169.5 39.5q87 0 150 -29l-68 -367q-67 43 -155 43q-75 0 -127 -50.5t-52 -151.5v-494h-360z" />
<glyph unicode="s" horiz-adv-x="954" d="M41 246l268 123q29 -59 75.5 -91t98.5 -32q43 0 64.5 15t21.5 38q0 47 -106 86l-125 45q-236 84 -236 318q0 132 107 216.5t268 84.5q269 0 359 -191l-252 -131q-36 74 -95 74q-26 0 -40.5 -11t-14.5 -30q0 -34 47 -51l140 -52q133 -48 204.5 -129.5t71.5 -220.5 q0 -147 -114.5 -239.5t-309.5 -92.5q-172 0 -281.5 72.5t-150.5 198.5z" />
<glyph unicode="t" horiz-adv-x="806" d="M41 762v262h158v266l360 68v-334h207v-262h-207v-762h-360v762h-158z" />
<glyph unicode="u" horiz-adv-x="1236" d="M113 356v668h360v-592q0 -65 37 -102t98 -37q60 0 103 48t43 140v543h360v-1024h-299l-41 123q-41 -60 -128 -104t-195 -44q-68 0 -127.5 22.5t-107.5 67t-75.5 119.5t-27.5 172z" />
<glyph unicode="v" horiz-adv-x="1126" d="M0 1024h365l198 -645l197 645h366l-370 -1024h-385z" />
<glyph unicode="w" horiz-adv-x="1658" d="M0 1024h365l161 -645l148 414l-80 231h364l179 -645l155 645h367l-336 -1024h-373l-121 346l-120 -346h-373z" />
<glyph unicode="x" horiz-adv-x="1112" d="M0 0l356 535l-325 489h397l127 -231l127 231h399l-325 -489l356 -535h-401l-156 274l-156 -274h-399z" />
<glyph unicode="y" horiz-adv-x="1142" d="M0 1024h389l199 -578l180 578h375l-541 -1434h-366l178 480z" />
<glyph unicode="z" horiz-adv-x="983" d="M66 0v287l399 430h-373v307h815v-287l-403 -430h418v-307h-856z" />
<glyph unicode="{" horiz-adv-x="911" d="M61 469v340h64q82 0 123 31t41 102v295q0 397 520 397h61v-303h-61q-85 0 -130.5 -48t-45.5 -128v-272q0 -102 -47.5 -164t-124.5 -80q76 -18 124 -80t48 -162v-327q0 -80 45.5 -128t130.5 -48h61v-304h-61q-520 0 -520 398v348q0 71 -41 102t-123 31h-64z" />
<glyph unicode="|" horiz-adv-x="614" d="M133 -369v1874h348v-1874h-348z" />
<glyph unicode="}" horiz-adv-x="911" d="M41 -106h61q86 0 131.5 48t45.5 128v327q0 100 48 162t124 80q-77 18 -124.5 80t-47.5 164v272q0 80 -45.5 128t-131.5 48h-61v303h61q521 0 521 -397v-295q0 -71 40.5 -102t122.5 -31h64v-340h-64q-82 0 -122.5 -31t-40.5 -102v-348q0 -398 -521 -398h-61v304z" />
<glyph unicode="~" d="M72 481q0 225 88.5 347t228.5 122q68 0 135.5 -24.5t111.5 -54t89 -54t74 -24.5q52 0 67 36.5t15 120.5h276q0 -226 -89 -347.5t-228 -121.5q-67 0 -134.5 24.5t-111.5 54.5t-89.5 54.5t-74.5 24.5q-50 0 -66 -37t-16 -121h-276z" />
<glyph unicode="&#xa1;" horiz-adv-x="620" d="M127 709v315h367v-315h-367zM143 -410v983h334v-983h-334z" />
<glyph unicode="&#xa2;" d="M102 512q0 187 101 320.5t266 187.5v209h340v-199q114 -29 200 -101.5t136 -180.5l-330 -136q-19 59 -61.5 92t-100.5 33q-84 0 -137 -62t-53 -163q0 -98 58 -161.5t143 -63.5q57 0 101 34.5t60 81.5l332 -131q-42 -98 -134 -172t-214 -106v-199h-340v207 q-166 51 -266.5 185.5t-100.5 324.5z" />
<glyph unicode="&#xa3;" d="M102 0v307h134v287h-134v235h134v195q0 91 31.5 169.5t91 137.5t152 93t206.5 34q131 0 245.5 -68t182.5 -159l-256 -227q-79 94 -152 94q-56 0 -89.5 -35.5t-33.5 -110.5v-123h328v-235h-328v-287h533v-307h-1045z" />
<glyph unicode="&#xa4;" d="M61 387l162 152q-33 87 -33 178q0 102 33 178l-162 152l226 225l151 -160q87 33 178 33q92 0 179 -33l151 160l225 -225l-161 -154q30 -76 30 -176q0 -99 -30 -176l161 -154l-225 -225l-149 160q-81 -35 -181 -35q-99 0 -180 35l-149 -160zM475 717q0 -85 39 -135 t102 -50q62 0 101 50t39 135t-39 133.5t-101 48.5t-101.5 -48.5t-39.5 -133.5z" />
<glyph unicode="&#xa5;" d="M0 1434h399l215 -318l215 318h400l-338 -445h143v-235h-223v-74h223v-236h-223v-444h-395v444h-221v236h221v74h-221v235h141z" />
<glyph unicode="&#xa6;" horiz-adv-x="614" d="M133 -369v793h348v-793h-348zM133 711v794h348v-794h-348z" />
<glyph unicode="&#xa7;" horiz-adv-x="1218" d="M82 -72l313 133q28 -82 88 -131t135 -49q42 0 66.5 20.5t24.5 51.5q0 20 -12 37t-24.5 27t-47.5 34l-211 146q-101 69 -125 89q-139 115 -162 281q-6 38 -6 80q0 164 145 268q-61 84 -61 183q0 164 127.5 262t337.5 98q324 0 413 -246l-295 -155q-20 44 -51 67t-67 23 q-35 0 -58.5 -13.5t-23.5 -39.5q0 -23 15 -40.5t52 -37.5l195 -105q162 -87 234.5 -191t72.5 -263q0 -168 -133 -295q61 -86 61 -193q0 -175 -127 -289t-337 -114q-217 0 -349 96.5t-190 265.5zM496 637q0 -46 28 -77t96 -79q3 -1 4 -2t3.5 -2.5t4 -3t3.5 -2.5l94 -68 l53 -36q29 37 29 84q0 64 -40 110t-146 105l-80 43q-49 -16 -49 -72z" />
<glyph unicode="&#xa8;" horiz-adv-x="1048" d="M213 1182v239h252v-239h-252zM584 1182v239h252v-239h-252z" />
<glyph unicode="&#xa9;" horiz-adv-x="1724" d="M72 717q0 164 58.5 308.5t161.5 248.5t251 164.5t319 60.5q228 0 409.5 -103t281.5 -281.5t100 -397.5q0 -163 -60 -307.5t-164.5 -249t-251.5 -165.5t-315 -61t-315 61t-251 165.5t-164 249t-60 307.5zM299 717q0 -166 74.5 -297t203 -203t285.5 -72q118 0 222 42 t179.5 116.5t119.5 182t44 231.5q0 166 -75 297t-203.5 202.5t-286.5 71.5t-286 -71.5t-202.5 -202.5t-74.5 -297zM422 717q0 184 125.5 313t314.5 129q141 0 242.5 -65.5t146.5 -161.5l-217 -127q-29 52 -64.5 75t-103.5 23q-69 0 -118.5 -55.5t-49.5 -130.5 q0 -76 49 -131.5t119 -55.5q68 0 106 22.5t66 70.5l215 -134q-50 -98 -148.5 -156.5t-242.5 -58.5q-189 0 -314.5 129.5t-125.5 313.5z" />
<glyph unicode="&#xaa;" horiz-adv-x="940" d="M82 1055q0 75 20.5 137t53 101.5t75.5 66t85 38t83 11.5q116 0 181 -57l20 41h236v-676h-220l-36 49q-3 -2 -16.5 -12t-27 -17.5t-35 -17t-51.5 -14.5t-65 -5q-122 0 -212.5 95.5t-90.5 259.5zM143 369v225h693v-225h-693zM332 1055q0 -65 36 -100t91 -35q54 0 90.5 35.5 t36.5 99.5t-36.5 99.5t-90.5 35.5q-55 0 -91 -35t-36 -100z" />
<glyph unicode="&#xab;" horiz-adv-x="1146" d="M41 532l203 390h360l-205 -383l205 -396h-360zM543 532l202 390h361l-205 -383l205 -396h-361z" />
<glyph unicode="&#xac;" d="M133 557v320h963v-734h-320v414h-643z" />
<glyph unicode="&#xad;" horiz-adv-x="921" d="M123 367v307h676v-307h-676z" />
<glyph unicode="&#xae;" horiz-adv-x="1062" d="M82 1106q0 192 126 321t322 129q199 0 325 -128.5t126 -321.5q0 -191 -129 -321t-322 -130q-191 0 -319.5 130t-128.5 321zM229 1106q0 -134 87 -221.5t214 -87.5q129 0 216.5 87.5t87.5 221.5t-87 221.5t-217 87.5q-127 0 -214 -87.5t-87 -221.5zM375 897v428h176 q70 0 118 -43t48 -106q0 -41 -23.5 -72.5t-56.5 -46.5l88 -160h-145l-62 135h-8v-135h-135zM510 1137h20q26 0 40 10.5t14 26.5q0 15 -15 25.5t-39 10.5h-20v-73z" />
<glyph unicode="&#xaf;" horiz-adv-x="1048" d="M207 1194v229h635v-229h-635z" />
<glyph unicode="&#xb0;" horiz-adv-x="788" d="M84 1151q0 130 88.5 218.5t222.5 88.5q133 0 221.5 -88.5t88.5 -218.5q0 -131 -88.5 -220t-221.5 -89q-134 0 -222.5 89t-88.5 220zM291 1151q0 -47 29 -78t75 -31q44 0 72.5 31t28.5 78t-28.5 78t-72.5 31q-46 0 -75 -31t-29 -78z" />
<glyph unicode="&#xb1;" d="M133 102v320h322v217h-322v319h322v322h319v-322h322v-319h-322v-217h322v-320h-963z" />
<glyph unicode="&#xb2;" horiz-adv-x="821" d="M78 717v196l272 207q8 6 28.5 21t27 20.5t21.5 17.5t20.5 19t13 17t10 19t2.5 19q0 31 -20 49.5t-54 18.5q-33 0 -52 -27.5t-25 -60.5l-222 61q10 50 31.5 92.5t58 81t96.5 60.5t136 22q136 0 220.5 -74t84.5 -182q0 -85 -27 -139t-92 -106l-168 -134h293v-198h-655z" />
<glyph unicode="&#xb3;" horiz-adv-x="823" d="M68 915l229 80q8 -29 35 -52t63 -23q46 0 71.5 20t25.5 51q0 24 -20.5 47.5t-68.5 28.5l-131 16v148l134 106h-281v199h577v-186l-159 -121q87 -25 144.5 -80.5t57.5 -144.5q0 -144 -92.5 -223t-249.5 -79q-271 0 -335 213z" />
<glyph unicode="&#xb4;" horiz-adv-x="1048" d="M272 1174l131 260h373l-215 -260h-289z" />
<glyph unicode="&#xb5;" horiz-adv-x="1247" d="M123 -410v1434h360v-592q0 -65 37 -102t98 -37q60 0 103 48t43 140v543h360v-1024h-299l-41 102q-32 -51 -89 -89t-117 -38q-61 0 -95 17v-402h-360z" />
<glyph unicode="&#xb6;" horiz-adv-x="1382" d="M61 1075q0 150 105.5 254.5t263.5 104.5h338v-1434h-338v717q-161 0 -265 100.5t-104 257.5zM922 0v1434h338v-1434h-338z" />
<glyph unicode="&#xb7;" horiz-adv-x="620" d="M123 412v366h375v-366h-375z" />
<glyph unicode="&#xb8;" horiz-adv-x="1048" d="M240 -410l98 154q70 -61 135 -61q29 0 49.5 13t20.5 36q0 22 -17 35.5t-45 13.5q-36 0 -61 -21l-121 101l152 176h194l-96 -115q85 0 146 -53.5t61 -136.5q0 -93 -70 -158.5t-203 -65.5q-60 0 -110 13.5t-75 28.5t-58 40z" />
<glyph unicode="&#xb9;" horiz-adv-x="577" d="M63 1200v223l185 113h229v-819h-254v571z" />
<glyph unicode="&#xba;" horiz-adv-x="909" d="M82 1057q0 162 108 258t267 96q158 0 265 -96t107 -258t-107 -258.5t-265 -96.5q-159 0 -267 96.5t-108 258.5zM143 369v225h625v-225h-625zM332 1057q0 -57 36.5 -94t88.5 -37q51 0 87 37t36 94q0 58 -36 94.5t-87 36.5q-53 0 -89 -36t-36 -95z" />
<glyph unicode="&#xbb;" horiz-adv-x="1146" d="M41 143l205 383l-205 396h360l203 -390l-203 -389h-360zM543 143l205 383l-205 396h360l203 -390l-203 -389h-360z" />
<glyph unicode="&#xbc;" horiz-adv-x="2048" d="M78 1098v223l184 113h230v-820h-254v572zM408 14l913 1530l207 -125l-914 -1528zM1130 127v182l363 510h236v-502h120v-190h-120v-127h-254v127h-345zM1335 317h140v181z" />
<glyph unicode="&#xbd;" horiz-adv-x="2048" d="M117 1098v223l184 113h229v-820h-254v572zM406 14l913 1530l207 -125l-914 -1528zM1194 0v197l272 206q7 6 22 17t22 16t19 14.5t17.5 15t14 13.5t12.5 14t8.5 14t6 15t1.5 15q0 31 -19.5 49t-53.5 18q-33 0 -52.5 -27.5t-25.5 -60.5l-221 62q10 50 31.5 92.5t58 81 t96 60.5t135.5 22q136 0 220.5 -74t84.5 -182q0 -85 -27 -139.5t-92 -106.5l-168 -133h293v-199h-655z" />
<glyph unicode="&#xbe;" horiz-adv-x="2048" d="M70 813l229 80q8 -29 35 -52.5t63 -23.5q45 0 71 20.5t26 51.5q0 24 -20 47.5t-68 28.5l-132 16v147l134 107h-281v199h578v-187l-160 -121q88 -25 145.5 -80.5t57.5 -144.5q0 -144 -92.5 -222.5t-249.5 -78.5q-272 0 -336 213zM498 14l913 1530l207 -125l-913 -1528z M1180 127v182l362 510h236v-502h120v-190h-120v-127h-254v127h-344zM1384 317h140v181z" />
<glyph unicode="&#xbf;" horiz-adv-x="1101" d="M41 10q0 154 87 264t247 154v145h334v-391l-170 -28q-138 -22 -138 -123q0 -54 43 -90.5t107 -36.5q59 0 101.5 36t60.5 97l327 -92q-42 -175 -176.5 -277t-314.5 -102q-224 0 -366 123t-142 321zM358 709v315h367v-315h-367z" />
<glyph unicode="&#xc0;" horiz-adv-x="1417" d="M0 0l535 1434h358l524 -1434h-383l-86 256h-479l-88 -256h-381zM354 1823h373l131 -260h-289zM582 592h252l-125 371z" />
<glyph unicode="&#xc1;" horiz-adv-x="1417" d="M0 0l535 1434h358l524 -1434h-383l-86 256h-479l-88 -256h-381zM561 1563l131 260h373l-215 -260h-289zM582 592h252l-125 371z" />
<glyph unicode="&#xc2;" horiz-adv-x="1417" d="M0 0l535 1434h358l524 -1434h-383l-86 256h-479l-88 -256h-381zM317 1563l224 260h342l217 -260h-305l-86 120l-86 -120h-306zM582 592h252l-125 371z" />
<glyph unicode="&#xc3;" horiz-adv-x="1417" d="M0 0l535 1434h358l524 -1434h-383l-86 256h-479l-88 -256h-381zM334 1536q-22 143 38.5 227t186.5 84q50 0 102.5 -24.5t95.5 -49t70 -24.5q38 0 46.5 28.5t-5.5 69.5h213q29 -141 -34 -226t-191 -85q-55 0 -108.5 24.5t-94.5 49t-65 24.5q-66 0 -41 -98h-213zM582 592 h252l-125 371z" />
<glyph unicode="&#xc4;" horiz-adv-x="1417" d="M0 0l535 1434h358l524 -1434h-383l-86 256h-479l-88 -256h-381zM397 1573v239h252v-239h-252zM582 592h252l-125 371zM768 1573v239h252v-239h-252z" />
<glyph unicode="&#xc5;" horiz-adv-x="1417" d="M0 0l535 1434h358l524 -1434h-383l-86 256h-479l-88 -256h-381zM481 1729q0 91 65.5 157t162.5 66q95 0 161 -66t66 -157q0 -90 -66 -157t-161 -67q-96 0 -162 67t-66 157zM582 592h252l-125 371zM655 1729q0 -22 16 -37t38 -15t36.5 15t14.5 37t-14.5 37.5t-36.5 15.5 t-38 -15.5t-16 -37.5z" />
<glyph unicode="&#xc6;" horiz-adv-x="2007" d="M-33 0l621 1434h1308v-336h-653v-187h612v-336h-612v-239h653v-336h-1048v256h-369l-104 -256h-408zM618 592h230v506h-23z" />
<glyph unicode="&#xc7;" horiz-adv-x="1480" d="M82 717q0 159 51.5 295t146 235t235 155t310.5 56q215 0 370.5 -89t238.5 -253l-330 -198q-48 99 -116 149.5t-181 50.5q-64 0 -123 -27t-105.5 -77t-74 -127t-27.5 -170q0 -99 30.5 -178.5t81 -127t111.5 -72t127 -24.5q97 0 175.5 50.5t121.5 136.5l340 -150 q-76 -161 -228 -261t-378 -114l-47 -55q85 0 146 -53.5t61 -136.5q0 -93 -70 -158.5t-203 -65.5q-60 0 -110 13.5t-75 28.5t-58 40l98 154q70 -61 135 -61q29 0 49.5 13t20.5 36q0 22 -17 35.5t-45 13.5q-36 0 -61 -21l-121 101l107 123q-174 27 -307.5 129.5t-206 259.5 t-72.5 344z" />
<glyph unicode="&#xc8;" horiz-adv-x="1292" d="M133 0v1434h1049v-336h-654v-187h613v-336h-613v-239h654v-336h-1049zM301 1823h373l131 -260h-289z" />
<glyph unicode="&#xc9;" horiz-adv-x="1292" d="M133 0v1434h1049v-336h-654v-187h613v-336h-613v-239h654v-336h-1049zM508 1563l131 260h373l-215 -260h-289z" />
<glyph unicode="&#xca;" horiz-adv-x="1292" d="M133 0v1434h1049v-336h-654v-187h613v-336h-613v-239h654v-336h-1049zM264 1563l223 260h342l218 -260h-306l-86 120l-86 -120h-305z" />
<glyph unicode="&#xcb;" horiz-adv-x="1292" d="M133 0v1434h1049v-336h-654v-187h613v-336h-613v-239h654v-336h-1049zM344 1573v239h252v-239h-252zM715 1573v239h252v-239h-252z" />
<glyph unicode="&#xcc;" horiz-adv-x="661" d="M-25 1823h373l131 -260h-289zM133 0v1434h395v-1434h-395z" />
<glyph unicode="&#xcd;" horiz-adv-x="661" d="M133 0v1434h395v-1434h-395zM182 1563l131 260h373l-215 -260h-289z" />
<glyph unicode="&#xce;" horiz-adv-x="661" d="M-61 1563l223 260h342l217 -260h-305l-86 120l-86 -120h-305zM133 0v1434h395v-1434h-395z" />
<glyph unicode="&#xcf;" horiz-adv-x="661" d="M18 1573v239h252v-239h-252zM133 0v1434h395v-1434h-395zM389 1573v239h252v-239h-252z" />
<glyph unicode="&#xd0;" horiz-adv-x="1454" d="M-41 553v328h174v553h559q136 0 251 -35.5t198.5 -100t142 -153.5t87 -197.5t28.5 -230.5q0 -152 -47.5 -282.5t-135.5 -227t-223 -152t-301 -55.5h-559v553h-174zM528 336h164q141 0 226.5 94t85.5 287q0 192 -86.5 286.5t-225.5 94.5h-164v-217h189v-328h-189v-217z " />
<glyph unicode="&#xd1;" horiz-adv-x="1501" d="M133 0v1434h436l414 -799v799h385v-1434h-436l-414 768v-768h-385zM375 1536q-22 143 38.5 227t186.5 84q50 0 102.5 -24.5t95.5 -49t70 -24.5q38 0 46.5 28.5t-5.5 69.5h213q29 -141 -34 -226t-191 -85q-55 0 -108.5 24.5t-94.5 49t-65 24.5q-66 0 -41 -98h-213z" />
<glyph unicode="&#xd2;" horiz-adv-x="1654" d="M82 717q0 159 51.5 295t146 235t235 155t310.5 56q227 0 398 -97t260.5 -264.5t89.5 -379.5q0 -209 -91.5 -377t-263 -266.5t-393.5 -98.5q-166 0 -306.5 57.5t-235.5 157t-148 235.5t-53 292zM473 1823h373l131 -260h-289zM477 717q0 -99 30.5 -179t81 -128t111.5 -73.5 t127 -25.5t127 25.5t112 73.5t81.5 128t30.5 179t-30.5 179t-81.5 128t-112 73t-127 25t-127 -25t-111.5 -73t-81 -128t-30.5 -179z" />
<glyph unicode="&#xd3;" horiz-adv-x="1654" d="M82 717q0 159 51.5 295t146 235t235 155t310.5 56q227 0 398 -97t260.5 -264.5t89.5 -379.5q0 -209 -91.5 -377t-263 -266.5t-393.5 -98.5q-166 0 -306.5 57.5t-235.5 157t-148 235.5t-53 292zM477 717q0 -99 30.5 -179t81 -128t111.5 -73.5t127 -25.5t127 25.5t112 73.5 t81.5 128t30.5 179t-30.5 179t-81.5 128t-112 73t-127 25t-127 -25t-111.5 -73t-81 -128t-30.5 -179zM680 1563l131 260h373l-215 -260h-289z" />
<glyph unicode="&#xd4;" horiz-adv-x="1654" d="M82 717q0 159 51.5 295t146 235t235 155t310.5 56q227 0 398 -97t260.5 -264.5t89.5 -379.5q0 -209 -91.5 -377t-263 -266.5t-393.5 -98.5q-166 0 -306.5 57.5t-235.5 157t-148 235.5t-53 292zM436 1563l223 260h342l218 -260h-306l-86 120l-86 -120h-305zM477 717 q0 -99 30.5 -179t81 -128t111.5 -73.5t127 -25.5t127 25.5t112 73.5t81.5 128t30.5 179t-30.5 179t-81.5 128t-112 73t-127 25t-127 -25t-111.5 -73t-81 -128t-30.5 -179z" />
<glyph unicode="&#xd5;" horiz-adv-x="1654" d="M82 717q0 159 51.5 295t146 235t235 155t310.5 56q227 0 398 -97t260.5 -264.5t89.5 -379.5q0 -209 -91.5 -377t-263 -266.5t-393.5 -98.5q-166 0 -306.5 57.5t-235.5 157t-148 235.5t-53 292zM453 1536q-22 143 38.5 227t186.5 84q50 0 102.5 -24.5t95.5 -49t70 -24.5 q38 0 46.5 28.5t-5.5 69.5h213q29 -141 -34 -226t-191 -85q-55 0 -108.5 24.5t-94.5 49t-65 24.5q-66 0 -41 -98h-213zM477 717q0 -99 30.5 -179t81 -128t111.5 -73.5t127 -25.5t127 25.5t112 73.5t81.5 128t30.5 179t-30.5 179t-81.5 128t-112 73t-127 25t-127 -25 t-111.5 -73t-81 -128t-30.5 -179z" />
<glyph unicode="&#xd6;" horiz-adv-x="1654" d="M82 717q0 159 51.5 295t146 235t235 155t310.5 56q227 0 398 -97t260.5 -264.5t89.5 -379.5q0 -209 -91.5 -377t-263 -266.5t-393.5 -98.5q-166 0 -306.5 57.5t-235.5 157t-148 235.5t-53 292zM477 717q0 -99 30.5 -179t81 -128t111.5 -73.5t127 -25.5t127 25.5t112 73.5 t81.5 128t30.5 179t-30.5 179t-81.5 128t-112 73t-127 25t-127 -25t-111.5 -73t-81 -128t-30.5 -179zM516 1573v239h252v-239h-252zM887 1573v239h252v-239h-252z" />
<glyph unicode="&#xd7;" d="M147 946l238 238l236 -236l229 230l225 -226l-229 -229l235 -234l-237 -239l-236 235l-229 -229l-225 225l229 230z" />
<glyph unicode="&#xd8;" horiz-adv-x="1654" d="M82 717q0 159 51.5 295t146 235t235 155t310.5 56q213 0 385 -90l107 123l215 -180l-109 -123q150 -198 150 -471q0 -209 -91.5 -377t-263 -266.5t-393.5 -98.5q-205 0 -379 91l-106 -123l-215 180l108 125q-151 196 -151 469zM477 717q0 -89 25 -162l467 537 q-68 30 -142 30q-66 0 -127 -25t-111.5 -73t-81 -128t-30.5 -179zM688 342q70 -31 139 -31q66 0 127 25.5t112 73.5t81.5 128t30.5 179q0 87 -25 160z" />
<glyph unicode="&#xd9;" horiz-adv-x="1495" d="M113 598v836h395v-809q0 -314 240 -314q128 0 183.5 82t55.5 232v809h395v-836q0 -286 -170.5 -454.5t-463.5 -168.5t-464 168.5t-171 454.5zM393 1823h373l131 -260h-289z" />
<glyph unicode="&#xda;" horiz-adv-x="1495" d="M113 598v836h395v-809q0 -314 240 -314q128 0 183.5 82t55.5 232v809h395v-836q0 -286 -170.5 -454.5t-463.5 -168.5t-464 168.5t-171 454.5zM600 1563l131 260h373l-215 -260h-289z" />
<glyph unicode="&#xdb;" horiz-adv-x="1495" d="M113 598v836h395v-809q0 -314 240 -314q128 0 183.5 82t55.5 232v809h395v-836q0 -286 -170.5 -454.5t-463.5 -168.5t-464 168.5t-171 454.5zM356 1563l224 260h342l217 -260h-305l-86 120l-86 -120h-306z" />
<glyph unicode="&#xdc;" horiz-adv-x="1495" d="M113 598v836h395v-809q0 -314 240 -314q128 0 183.5 82t55.5 232v809h395v-836q0 -286 -170.5 -454.5t-463.5 -168.5t-464 168.5t-171 454.5zM436 1573v239h252v-239h-252zM807 1573v239h252v-239h-252z" />
<glyph unicode="&#xdd;" horiz-adv-x="1286" d="M20 1434h408l215 -494l215 494h408l-426 -867v-567h-396v567zM496 1563l131 260h372l-215 -260h-288z" />
<glyph unicode="&#xde;" horiz-adv-x="1290" d="M133 0v1434h395v-246h156q259 0 391.5 -122.5t132.5 -322.5q0 -218 -148 -351.5t-396 -133.5h-136v-258h-395zM528 594h156q54 0 91.5 37.5t37.5 91.5t-37.5 91.5t-91.5 37.5h-156v-258z" />
<glyph unicode="&#xdf;" horiz-adv-x="1329" d="M123 0v993q0 114 21 197t68 145.5t128.5 93.5t198.5 31q123 0 200 -22v-310q-47 21 -123 21q-133 0 -133 -125v-31h721v-317l-227 -236q301 -129 301 -399q0 -217 -161 -346t-419 -129q-123 0 -256 26v312q128 -27 207 -27q112 0 192.5 43.5t80.5 120.5q0 47 -27 80.5 t-76 52t-106.5 27t-128.5 8.5v246l204 219h-305v-674h-360z" />
<glyph unicode="&#xe0;" horiz-adv-x="1333" d="M82 512q0 108 30 199t79 152.5t113 104t130 62t131 19.5q93 0 163.5 -28t113.5 -69l30 72h338v-1024h-317l-51 82q-20 -19 -38 -32.5t-54.5 -33t-88.5 -30.5t-116 -11q-89 0 -172 37t-148 103.5t-104 170t-39 226.5zM311 1434h373l131 -260h-289zM442 512 q0 -107 58.5 -168t146.5 -61t146.5 61t58.5 168t-58.5 168t-146.5 61t-146.5 -61t-58.5 -168z" />
<glyph unicode="&#xe1;" horiz-adv-x="1333" d="M82 512q0 108 30 199t79 152.5t113 104t130 62t131 19.5q93 0 163.5 -28t113.5 -69l30 72h338v-1024h-317l-51 82q-20 -19 -38 -32.5t-54.5 -33t-88.5 -30.5t-116 -11q-89 0 -172 37t-148 103.5t-104 170t-39 226.5zM442 512q0 -107 58.5 -168t146.5 -61t146.5 61 t58.5 168t-58.5 168t-146.5 61t-146.5 -61t-58.5 -168zM518 1174l131 260h373l-215 -260h-289z" />
<glyph unicode="&#xe2;" horiz-adv-x="1333" d="M82 512q0 108 30 199t79 152.5t113 104t130 62t131 19.5q93 0 163.5 -28t113.5 -69l30 72h338v-1024h-317l-51 82q-20 -19 -38 -32.5t-54.5 -33t-88.5 -30.5t-116 -11q-89 0 -172 37t-148 103.5t-104 170t-39 226.5zM274 1174l224 260h342l217 -260h-305l-86 120 l-86 -120h-306zM442 512q0 -107 58.5 -168t146.5 -61t146.5 61t58.5 168t-58.5 168t-146.5 61t-146.5 -61t-58.5 -168z" />
<glyph unicode="&#xe3;" horiz-adv-x="1333" d="M82 512q0 108 30 199t79 152.5t113 104t130 62t131 19.5q93 0 163.5 -28t113.5 -69l30 72h338v-1024h-317l-51 82q-20 -19 -38 -32.5t-54.5 -33t-88.5 -30.5t-116 -11q-89 0 -172 37t-148 103.5t-104 170t-39 226.5zM291 1147q-22 143 38.5 227t186.5 84 q50 0 102.5 -24.5t95.5 -49t70 -24.5q38 0 46.5 28.5t-5.5 69.5h213q29 -141 -34 -226t-191 -85q-55 0 -108.5 24.5t-94.5 49t-65 24.5q-66 0 -41 -98h-213zM442 512q0 -107 58.5 -168t146.5 -61t146.5 61t58.5 168t-58.5 168t-146.5 61t-146.5 -61t-58.5 -168z" />
<glyph unicode="&#xe4;" horiz-adv-x="1333" d="M82 512q0 108 30 199t79 152.5t113 104t130 62t131 19.5q93 0 163.5 -28t113.5 -69l30 72h338v-1024h-317l-51 82q-20 -19 -38 -32.5t-54.5 -33t-88.5 -30.5t-116 -11q-89 0 -172 37t-148 103.5t-104 170t-39 226.5zM354 1182v239h252v-239h-252zM442 512 q0 -107 58.5 -168t146.5 -61t146.5 61t58.5 168t-58.5 168t-146.5 61t-146.5 -61t-58.5 -168zM725 1182v239h252v-239h-252z" />
<glyph unicode="&#xe5;" horiz-adv-x="1333" d="M82 512q0 108 30 199t79 152.5t113 104t130 62t131 19.5q93 0 163.5 -28t113.5 -69l30 72h338v-1024h-317l-51 82q-20 -19 -38 -32.5t-54.5 -33t-88.5 -30.5t-116 -11q-89 0 -172 37t-148 103.5t-104 170t-39 226.5zM438 1339q0 91 65.5 157.5t162.5 66.5q95 0 161 -66.5 t66 -157.5q0 -89 -66 -156t-161 -67q-96 0 -162 66.5t-66 156.5zM442 512q0 -107 58.5 -168t146.5 -61t146.5 61t58.5 168t-58.5 168t-146.5 61t-146.5 -61t-58.5 -168zM612 1339q0 -21 16 -36t38 -15t36.5 14.5t14.5 36.5t-15 38t-36 16q-22 0 -38 -16t-16 -38z" />
<glyph unicode="&#xe6;" horiz-adv-x="2056" d="M82 512q0 108 30 199t79 152.5t113 104t130 62t131 19.5q93 0 163.5 -28t113.5 -69l30 72h277v-115q56 70 141.5 105t177.5 35q88 0 164.5 -21.5t132.5 -58.5t100 -86t70.5 -106t39.5 -118t11.5 -120.5t-16.5 -114.5h-702q17 -68 70.5 -105.5t125.5 -37.5q129 0 185 94 l295 -150q-143 -250 -484 -250q-88 0 -177.5 40t-133.5 100v-115h-256l-51 82q-20 -19 -38 -32.5t-54.5 -33t-88.5 -30.5t-116 -11q-89 0 -172 37t-148 103.5t-104 170t-39 226.5zM442 512q0 -106 61 -167.5t150 -61.5t150 61.5t61 167.5t-61 167.5t-150 61.5t-150 -61.5 t-61 -167.5zM1274 655h342q-11 51 -57.5 89t-110.5 38q-67 0 -115.5 -39t-58.5 -88z" />
<glyph unicode="&#xe7;" horiz-adv-x="1185" d="M82 512q0 161 76 284.5t203 188t282 64.5q165 0 290.5 -80t190.5 -221l-329 -136q-19 59 -61.5 92t-100.5 33q-84 0 -137.5 -62t-53.5 -163q0 -98 58 -161.5t143 -63.5q57 0 101.5 34.5t60.5 81.5l332 -131q-51 -118 -170 -199t-273 -96l-47 -55q85 0 146 -53.5 t61 -136.5q0 -93 -69.5 -158.5t-202.5 -65.5q-60 0 -110 13.5t-76 28.5t-58 40l98 154q70 -61 135 -61q29 0 49.5 13t20.5 36q0 22 -16.5 35.5t-44.5 13.5q-37 0 -62 -21l-121 101l109 127q-189 38 -306.5 177.5t-117.5 346.5z" />
<glyph unicode="&#xe8;" horiz-adv-x="1224" d="M82 512q0 246 146 391.5t386 145.5q110 0 201.5 -29t153 -77.5t104 -113t61.5 -134t19 -142.5q0 -63 -16 -129h-693q17 -68 66.5 -105.5t120.5 -37.5q128 0 184 94l295 -150q-143 -250 -494 -250q-235 0 -384.5 146.5t-149.5 390.5zM260 1434h373l131 -260h-289zM451 655 h331q-11 51 -57.5 89t-110.5 38q-66 0 -109.5 -38t-53.5 -89z" />
<glyph unicode="&#xe9;" horiz-adv-x="1224" d="M82 512q0 246 146 391.5t386 145.5q110 0 201.5 -29t153 -77.5t104 -113t61.5 -134t19 -142.5q0 -63 -16 -129h-693q17 -68 66.5 -105.5t120.5 -37.5q128 0 184 94l295 -150q-143 -250 -494 -250q-235 0 -384.5 146.5t-149.5 390.5zM451 655h331q-11 51 -57.5 89 t-110.5 38q-66 0 -109.5 -38t-53.5 -89zM467 1174l131 260h373l-215 -260h-289z" />
<glyph unicode="&#xea;" horiz-adv-x="1224" d="M82 512q0 246 146 391.5t386 145.5q110 0 201.5 -29t153 -77.5t104 -113t61.5 -134t19 -142.5q0 -63 -16 -129h-693q17 -68 66.5 -105.5t120.5 -37.5q128 0 184 94l295 -150q-143 -250 -494 -250q-235 0 -384.5 146.5t-149.5 390.5zM223 1174l223 260h342l218 -260h-306 l-86 120l-86 -120h-305zM451 655h331q-11 51 -57.5 89t-110.5 38q-66 0 -109.5 -38t-53.5 -89z" />
<glyph unicode="&#xeb;" horiz-adv-x="1224" d="M82 512q0 246 146 391.5t386 145.5q110 0 201.5 -29t153 -77.5t104 -113t61.5 -134t19 -142.5q0 -63 -16 -129h-693q17 -68 66.5 -105.5t120.5 -37.5q128 0 184 94l295 -150q-143 -250 -494 -250q-235 0 -384.5 146.5t-149.5 390.5zM303 1182v239h252v-239h-252zM451 655 h331q-11 51 -57.5 89t-110.5 38q-66 0 -109.5 -38t-53.5 -89zM674 1182v239h252v-239h-252z" />
<glyph unicode="&#xec;" horiz-adv-x="606" d="M-51 1434h373l131 -260h-289zM123 0v1024h360v-1024h-360z" />
<glyph unicode="&#xed;" horiz-adv-x="606" d="M123 0v1024h360v-1024h-360zM156 1174l131 260h372l-215 -260h-288z" />
<glyph unicode="&#xee;" horiz-adv-x="606" d="M-88 1174l223 260h342l217 -260h-305l-86 120l-86 -120h-305zM123 0v1024h360v-1024h-360z" />
<glyph unicode="&#xef;" horiz-adv-x="606" d="M-8 1182v239h252v-239h-252zM123 0v1024h360v-1024h-360zM362 1182v239h252v-239h-252z" />
<glyph unicode="&#xf0;" horiz-adv-x="1286" d="M82 502q0 142 64 259.5t173.5 184t239.5 66.5h19l-86 84l-236 -64l-53 197l145 39l-164 196h434l78 -106l201 53l53 -192l-123 -33l236 -318q141 -186 141 -366q0 -156 -76 -277t-203 -185.5t-282 -64.5t-282 64.5t-203 185.5t-76 277zM442 502q0 -92 58.5 -153.5 t142.5 -61.5t142.5 61.5t58.5 153.5q0 96 -58 155.5t-143 59.5t-143 -59.5t-58 -155.5z" />
<glyph unicode="&#xf1;" horiz-adv-x="1230" d="M123 0v1024h299l41 -123q41 60 128 104t195 44q68 0 127.5 -22.5t107.5 -67t75.5 -119.5t27.5 -172v-668h-360v592q0 65 -37 102t-98 37q-60 0 -103 -48t-43 -140v-543h-360zM248 1147q-22 143 38.5 227t186.5 84q50 0 102.5 -24.5t95.5 -49t70 -24.5q38 0 46.5 28.5 t-5.5 69.5h213q29 -141 -34 -226t-191 -85q-55 0 -108.5 24.5t-94.5 49t-65 24.5q-66 0 -41 -98h-213z" />
<glyph unicode="&#xf2;" horiz-adv-x="1286" d="M82 512q0 161 76 284.5t203 188t282 64.5t282 -64.5t203 -188t76 -284.5t-76 -284.5t-203 -188t-282 -64.5t-282 64.5t-203 188t-76 284.5zM289 1436h373l131 -260h-289zM442 512q0 -98 58 -161.5t143 -63.5t143 63.5t58 161.5q0 99 -58 162t-143 63t-143 -63t-58 -162z " />
<glyph unicode="&#xf3;" horiz-adv-x="1286" d="M82 512q0 161 76 284.5t203 188t282 64.5t282 -64.5t203 -188t76 -284.5t-76 -284.5t-203 -188t-282 -64.5t-282 64.5t-203 188t-76 284.5zM442 512q0 -98 58 -161.5t143 -63.5t143 63.5t58 161.5q0 99 -58 162t-143 63t-143 -63t-58 -162zM496 1176l131 260h372 l-215 -260h-288z" />
<glyph unicode="&#xf4;" horiz-adv-x="1286" d="M82 512q0 161 76 284.5t203 188t282 64.5t282 -64.5t203 -188t76 -284.5t-76 -284.5t-203 -188t-282 -64.5t-282 64.5t-203 188t-76 284.5zM252 1176l223 260h342l217 -260h-305l-86 120l-86 -120h-305zM442 512q0 -98 58 -161.5t143 -63.5t143 63.5t58 161.5 q0 99 -58 162t-143 63t-143 -63t-58 -162z" />
<glyph unicode="&#xf5;" horiz-adv-x="1286" d="M82 512q0 161 76 284.5t203 188t282 64.5t282 -64.5t203 -188t76 -284.5t-76 -284.5t-203 -188t-282 -64.5t-282 64.5t-203 188t-76 284.5zM268 1149q-22 143 39 227t187 84q50 0 102.5 -24.5t95.5 -49t70 -24.5q38 0 46.5 28.5t-5.5 69.5h213q29 -141 -34 -226t-191 -85 q-55 0 -109 24.5t-95 49t-65 24.5q-66 0 -41 -98h-213zM442 512q0 -98 58 -161.5t143 -63.5t143 63.5t58 161.5q0 99 -58 162t-143 63t-143 -63t-58 -162z" />
<glyph unicode="&#xf6;" horiz-adv-x="1286" d="M82 512q0 161 76 284.5t203 188t282 64.5t282 -64.5t203 -188t76 -284.5t-76 -284.5t-203 -188t-282 -64.5t-282 64.5t-203 188t-76 284.5zM332 1184v239h252v-239h-252zM442 512q0 -98 58 -161.5t143 -63.5t143 63.5t58 161.5q0 99 -58 162t-143 63t-143 -63t-58 -162z M702 1184v239h252v-239h-252z" />
<glyph unicode="&#xf7;" d="M133 557v320h963v-320h-963zM436 102v316h355v-316h-355zM436 1016v315h355v-315h-355z" />
<glyph unicode="&#xf8;" horiz-adv-x="1286" d="M82 512q0 161 76 284.5t203 188t282 64.5q160 0 291 -70l72 82l137 -111l-70 -80q131 -144 131 -358q0 -161 -76 -284.5t-203 -188t-282 -64.5q-158 0 -289 70l-71 -82l-138 111l70 78q-133 146 -133 360zM442 512q0 -41 13 -82l258 295q-35 12 -70 12q-85 0 -143 -63 t-58 -162zM575 299q30 -12 68 -12q85 0 143 63.5t58 161.5q0 41 -13 82z" />
<glyph unicode="&#xf9;" horiz-adv-x="1236" d="M113 356v668h360v-592q0 -65 37 -102t98 -37q60 0 103 48t43 140v543h360v-1024h-299l-41 123q-41 -60 -128 -104t-195 -44q-68 0 -127.5 22.5t-107.5 67t-75.5 119.5t-27.5 172zM254 1434h373l131 -260h-289z" />
<glyph unicode="&#xfa;" horiz-adv-x="1236" d="M113 356v668h360v-592q0 -65 37 -102t98 -37q60 0 103 48t43 140v543h360v-1024h-299l-41 123q-41 -60 -128 -104t-195 -44q-68 0 -127.5 22.5t-107.5 67t-75.5 119.5t-27.5 172zM461 1174l131 260h373l-215 -260h-289z" />
<glyph unicode="&#xfb;" horiz-adv-x="1236" d="M113 356v668h360v-592q0 -65 37 -102t98 -37q60 0 103 48t43 140v543h360v-1024h-299l-41 123q-41 -60 -128 -104t-195 -44q-68 0 -127.5 22.5t-107.5 67t-75.5 119.5t-27.5 172zM217 1174l223 260h342l217 -260h-305l-86 120l-86 -120h-305z" />
<glyph unicode="&#xfc;" horiz-adv-x="1236" d="M113 356v668h360v-592q0 -65 37 -102t98 -37q60 0 103 48t43 140v543h360v-1024h-299l-41 123q-41 -60 -128 -104t-195 -44q-68 0 -127.5 22.5t-107.5 67t-75.5 119.5t-27.5 172zM297 1182v239h252v-239h-252zM668 1182v239h252v-239h-252z" />
<glyph unicode="&#xfd;" horiz-adv-x="1142" d="M0 1024h389l199 -578l180 578h375l-541 -1434h-366l178 480zM426 1174l131 260h373l-215 -260h-289z" />
<glyph unicode="&#xfe;" horiz-adv-x="1351" d="M123 -410v1874h360v-544q41 53 119.5 91t185.5 38q72 0 140 -21t128.5 -65t105.5 -106t71.5 -151t26.5 -194q0 -114 -31 -207t-81 -153t-116 -101t-132 -58.5t-132 -17.5q-194 0 -285 107v-492h-360zM483 512q0 -105 59 -165t148 -60q90 0 149.5 60t59.5 165 q0 104 -59.5 164.5t-149.5 60.5q-88 0 -147.5 -60.5t-59.5 -164.5z" />
<glyph unicode="&#xff;" horiz-adv-x="1142" d="M0 1024h389l199 -578l180 578h375l-541 -1434h-366l178 480zM262 1182v239h252v-239h-252zM633 1182v239h252v-239h-252z" />
<glyph unicode="&#x152;" horiz-adv-x="2111" d="M82 717q0 153 46 283.5t133 227.5t222 151.5t305 54.5h1213v-336h-653v-187h612v-336h-612v-239h653v-336h-1213q-166 0 -301 55.5t-222.5 152t-135 227t-47.5 282.5zM477 717q0 -193 85 -287t226 -94h164v762h-164q-138 0 -224.5 -94.5t-86.5 -286.5z" />
<glyph unicode="&#x153;" horiz-adv-x="2009" d="M82 512q0 161 76 284.5t203 188t282 64.5q124 0 225 -47.5t160 -127.5q52 74 157 124.5t216 50.5q110 0 201.5 -29t153 -77.5t103.5 -113t61 -134t19 -142.5q0 -63 -16 -129h-692q17 -69 66 -106t120 -37q129 0 185 94l294 -150q-143 -250 -493 -250q-137 0 -230 52 t-143 125q-49 -72 -155.5 -124.5t-231.5 -52.5q-155 0 -282 64.5t-203 188t-76 284.5zM442 512q0 -98 58 -161.5t143 -63.5t143 63.5t58 161.5q0 99 -58 162t-143 63t-143 -63t-58 -162zM1237 655h332q-11 51 -57.5 89t-110.5 38q-66 0 -110 -38.5t-54 -88.5z" />
<glyph unicode="&#x178;" horiz-adv-x="1286" d="M20 1434h408l215 -494l215 494h408l-426 -867v-567h-396v567zM332 1573v239h252v-239h-252zM702 1573v239h252v-239h-252z" />
<glyph unicode="&#x2c6;" horiz-adv-x="1048" d="M133 1174l223 260h342l217 -260h-305l-86 120l-86 -120h-305z" />
<glyph unicode="&#x2dc;" horiz-adv-x="1048" d="M150 1147q-22 143 38.5 227t186.5 84q50 0 102.5 -24.5t95.5 -49t70 -24.5q38 0 46.5 28.5t-5.5 69.5h213q29 -141 -34 -226t-191 -85q-55 0 -109 24.5t-95 49t-65 24.5q-66 0 -41 -98h-212z" />
<glyph unicode="&#x2000;" horiz-adv-x="976" />
<glyph unicode="&#x2001;" horiz-adv-x="1952" />
<glyph unicode="&#x2002;" horiz-adv-x="976" />
<glyph unicode="&#x2003;" horiz-adv-x="1952" />
<glyph unicode="&#x2004;" horiz-adv-x="650" />
<glyph unicode="&#x2005;" horiz-adv-x="488" />
<glyph unicode="&#x2006;" horiz-adv-x="325" />
<glyph unicode="&#x2007;" horiz-adv-x="325" />
<glyph unicode="&#x2008;" horiz-adv-x="244" />
<glyph unicode="&#x2009;" horiz-adv-x="390" />
<glyph unicode="&#x200a;" horiz-adv-x="108" />
<glyph unicode="&#x2010;" horiz-adv-x="921" d="M123 367v307h676v-307h-676z" />
<glyph unicode="&#x2011;" horiz-adv-x="921" d="M123 367v307h676v-307h-676z" />
<glyph unicode="&#x2012;" horiz-adv-x="921" d="M123 367v307h676v-307h-676z" />
<glyph unicode="&#x2013;" horiz-adv-x="1290" d="M123 358v324h1044v-324h-1044z" />
<glyph unicode="&#x2014;" horiz-adv-x="1880" d="M123 358v324h1634v-324h-1634z" />
<glyph unicode="&#x2018;" horiz-adv-x="614" d="M68 895l204 539h275l-107 -539h-372z" />
<glyph unicode="&#x2019;" horiz-adv-x="614" d="M68 895l106 539h373l-205 -539h-274z" />
<glyph unicode="&#x201a;" horiz-adv-x="614" d="M68 -287l106 539h373l-205 -539h-274z" />
<glyph unicode="&#x201c;" horiz-adv-x="1099" d="M68 895l204 539h275l-107 -539h-372zM553 895l205 539h274l-106 -539h-373z" />
<glyph unicode="&#x201d;" horiz-adv-x="1099" d="M68 895l106 539h373l-205 -539h-274zM553 895l106 539h373l-205 -539h-274z" />
<glyph unicode="&#x201e;" horiz-adv-x="1099" d="M68 -287l106 539h373l-205 -539h-274zM553 -287l106 539h373l-205 -539h-274z" />
<glyph unicode="&#x2022;" horiz-adv-x="698" d="M82 676q0 108 78 186t188 78q109 0 188.5 -78.5t79.5 -185.5t-79.5 -184.5t-188.5 -77.5q-110 0 -188 77t-78 185z" />
<glyph unicode="&#x2026;" horiz-adv-x="1902" d="M133 0v315h354v-315h-354zM774 0v315h354v-315h-354zM1415 0v315h354v-315h-354z" />
<glyph unicode="&#x202f;" horiz-adv-x="390" />
<glyph unicode="&#x2039;" horiz-adv-x="645" d="M41 532l203 390h360l-205 -383l205 -396h-360z" />
<glyph unicode="&#x203a;" horiz-adv-x="645" d="M41 143l205 383l-205 396h360l203 -390l-203 -389h-360z" />
<glyph unicode="&#x205f;" horiz-adv-x="488" />
<glyph unicode="&#x20ac;" d="M0 444v236h139v74h-139v235h162q54 225 200 347t365 122q180 0 311.5 -90t196.5 -254l-348 -115q-24 72 -66.5 110t-93.5 38q-128 0 -180 -158h293v-235h-322v-74h322v-236h-293q52 -157 180 -157q57 0 103 44t69 124l350 -107q-63 -179 -199 -276t-323 -97 q-219 0 -364 122t-199 347h-164z" />
<glyph unicode="&#x2122;" horiz-adv-x="1499" d="M82 1249v185h502v-185h-150v-389h-215v389h-137zM664 860v574h268l92 -285l98 285h258v-574h-182v246l-92 -246h-158l-102 246v-246h-182z" />
<glyph unicode="&#x25fc;" horiz-adv-x="1024" d="M0 0v1024h1024v-1024h-1024z" />
</font>
</defs>
</svg>
